<svg xmlns="http://www.w3.org/2000/svg" viewBox="80 405 1000 270"><path fill="#7d9df0" d="M166 462c-14-7-19-27 3-19 57-1 114-4 171-3h639l-23 44c17 11 23 22 0 31-10 13 3 28-7 40 13 10 38 20 14 37-5 12 12 22 4 36 6 12 20 18-2 15H255c-32 1-66 3-98 2 18-6 7-29 17-42-21-13-13-32 9-36-4-15 7-43-17-52-16-14 33-28 1-41-4-3-4-8-1-12z"/><path d="M611 467v24c0 2-2 3-3 4s-3-1-4-1c-2-2-4-4-4-6v-9l-2-18 2-2 3-1 5 2 3 4v3zm141 46 15 2 19-1 7 5c-1 4-7 4-12 4-4-2-7 3-7 7-1 6 7 5 11 4 3 0 7-2 9 1 4 3-1 8 3 11 2 6-3 12-6 17-3 7-9 12-14 18-3 3-6 9 1 9 5 0 10-5 14-1 3 5-6 5-9 7-4 3-10 0-14 2h-14c-6 0-12 0-17-4-2-1-7-3-5-6 2 0 5-2 8 0 5 2 11 2 17 2 1-3 2-10-2-11-6 0-11-4-12-10l-11-21h6l21 23c2-3 3-9 3-13-1-4 3-12-3-13-7-3-14-2-21-2l-16-7-1-7 24-30 12-16c0-2-1-4 1-6 5 1 11-1 15 3s5 10 10 13l20 16c2 4-3 7-6 5-7-4-12-9-18-14-4-2-8-9-13-7-7 6-12 13-15 20zm-14 20c6 3 12 5 18 4 4 1 6-2 7-5l1-6c-2-2-3-4-6-4l-12-2-8 12v1zm39 10c-4 3-5 9-4 14 0 4-2 11-1 14l10-15c2-3 6-11 2-12l-7-1z"/><path d="M831 591c-6-1-11 3-17 2-3 1-5-1-7-3-1-1-3-4-1-5 5-1 10-2 15-1 5-2 10-3 14-6l1-9c-5-3-12-1-17-1s-10 1-13-4c-4-6 7-3 11-4 6-2 14 1 20-2l5-21-7-3c-5 2-11 1-16 2-4-1-9 2-13 0-1-2-4-3-5-6 1-3 5-1 8-2h8l9-1h12l5-3v-8l-10-1c-5 2-10 1-16 1-2-1-3-4-4-6-4-4 5-2 7-3l27 1c5-4 4-10 4-15-1-3-4-5-7-4-5 1-11-2-16 1-6 0-12 5-18 3l-5-6c4-3 9-5 14-6h24l20 5v16c-1 4 2 8 0 12l-3 8 7 3c2-1 5-3 7-1 3 1 6 1 8 3 0 4-7 7-11 5-5 1-11 0-16 3-3 8-5 16-5 24 0 7 8 0 11-2 7-6 15-9 23-11 1 1 4 3 4 5-10 6-20 12-29 21l1 6c7 6 16 10 25 13 4 3-2 5-6 5-6 0-11-4-16-7l-17-11c-4 6-1 12-3 18-1 4 2 11-3 13-4 3-9-3-9-7v-11zm-571-69h6c3 1 5-1 8-1l19 1c3 0 7 3 4 6l-8 4-2 11c2 2 4 4 7 3 2-1 4-2 6-1 3 2 6 12 0 9-8-2-18 0-15 10 0 3-2 13 3 13 5-5 10-10 13-17 2-1 6-5 7-2 2 6 0 12-4 16-4 7-10 12-15 16-1 3-1 6 3 5 7 1 13-3 19-4 3-2 5 0 7 2s-2 3-2 5c-4 3-9 1-13 3-15 3-30 6-45 11-3 0-8-4-6-7 7-4 16-6 24-7l-1-16v-24l-6-4-17 5 6 12 7 18c-2 6-9 0-10-4-6-8-10-17-13-27 1-2 4-2 5-5 1-2 2-3 4-3l23-5c2-1 1-4 2-6l1-6-9-2c-5 3-12 0-16 3l-7 12-6 3-7-4 11-19 27-44 9-1c8 4 11 12 16 17l18 16c-1 3-1 5-3 7-3 1-4-2-7-4l-25-23-3 4-15 24zm178-37c3 0 6 2 9 4l-2 5-37 57-4-3c-3-2-6-4-4-8l33-54 5-1zm-108 32c3 1 7 2 11 1 6-2 12-4 19-3 4 0 10-1 14 2 3 2 3 6 5 9 4 10 5 22 5 33s1 23-4 34c-2 5-5 9-9 12l-7 1c-1-2-4-2-4-5 0-4 4-6 5-10 6-9 8-21 7-32-2-3 2-8 0-11 0-5 0-10-3-15-1-5-3-11-9-10-11 0-21 4-30 9-3 5-3 10-3 15-1 4 3 9 0 12-1 3-4 1-6 0-1-1-3-1-3-3l-2-10 1-14 2-18 1-17c0-6 7-4 10-2 4 3 1 9 1 13l-1 9zm339 23-3 15-2 26c0 3 0 6 3 7l5 5c4 0 8-1 12-4l20-8c5 0 10 8 4 10-10 6-20 10-31 12-5 0-10 0-14-4-6-3-10-9-10-16v-12c0-10 2-19 3-29 1-3-5-7-2-8l24-6c4-1 4-6 4-10v-9c-4-3-8-1-12 0l-11 3-5-5c-3-2 0-5 4-6 9-3 19-6 28-5 3 1 7 2 7 5l2 8c-3 4-2 10-2 15-1 3 4 6 2 9-2 4-7 3-11 4l-15 3zm-177-37 7-1c2 1 5-1 7-1l17-1c3-1 6 0 8 1s7 2 4 5l-3 4-19 2-11 1-8 1h-10c-2 0-5 2-7 0l-6-6c-2-3 3-4 6-4h14zm139 13h-15l-7-1-13 2-13 1-9 2-6-5c-3-4 3-5 6-6 6-1 11 1 17-1l14-1h27l3 3c1 0 3 1 2 2l-5 3-1 1zm-192 46-4 1-9 10-5-2-2-2c0-2-2-4 0-4 4-2 5-7 8-11l22-31c2-2 5-6 8-5 3 0 7 0 8 3v5l-10 10-2 6v16c2 4 1 8 1 12v15c2 4 1 8 1 13-1 5-7 4-10 1-3 0-5-4-3-7v-24c-1-2-1-5-3-6zm187-34 4 3c0 2-3 2-5 3l-34 6-3-2-4-3c-1-2 2-1 4-2l33-6 5 1zm-116 19c-3-3-7-1-10-1l-25 4c-3 0-5-3-6-5-1-4 5-3 8-4l58-11c4 1 8-1 11 2 1 1 3 2 3 4 1 3-4 4-6 5-5 3-10 1-15 2-4 2-5 7-4 11 1 5 2 9 1 13 0 8 1 16-1 24-2 5 0 10-2 15-1 4-4 10-8 6-4-2-6-6-8-10 4-6 6-13 6-21l1-21c1-4-1-8-3-11v-2zm98 2 19-3 1 2 1 3-4 3c-8 3-18 5-27 5l-6-3-2-3v-2c1-2 3-1 4-1l14-1z"/><path d="m353 576-17-18c-1-1-2-2-1-3l4-2c2 0 4 1 5 3l8 7 7 10v3l-4 1-2-1zm246 23v10l-3 3h-3l-5-6-1-6 1-7 1-10c1-2-2-3-1-4v-7l5-3 12-1c6 0 12 0 17 3 4 1 8 3 10 7l4 10v4l-3 6-16 3-9 1-9-4v1zm0-20v11l5 2c3 1 6 2 9 1l9-2 1-3v-5l-2-4-9-3c-3-1-6 1-9 1l-4 2z"/></svg>