<?xml version="1.0" encoding="UTF-8" standalone="no"?>
<svg
   viewBox="0 0 1668 614.3808"
   version="1.1"
   id="svg20"
   sodipodi:docname="jishinkaiboard.svg"
   width="1668"
   height="614.3808"
   inkscape:version="1.3.2 (091e20e, 2023-11-25, custom)"
   xmlns:inkscape="http://www.inkscape.org/namespaces/inkscape"
   xmlns:sodipodi="http://sodipodi.sourceforge.net/DTD/sodipodi-0.dtd"
   xmlns="http://www.w3.org/2000/svg"
   xmlns:svg="http://www.w3.org/2000/svg">
  <defs
     id="defs20" />
  <sodipodi:namedview
     id="namedview20"
     pagecolor="#ffffff"
     bordercolor="#000000"
     borderopacity="0.25"
     inkscape:showpageshadow="2"
     inkscape:pageopacity="0.0"
     inkscape:pagecheckerboard="0"
     inkscape:deskcolor="#d1d1d1"
     inkscape:zoom="0.66127098"
     inkscape:cx="834"
     inkscape:cy="328.15594"
     inkscape:window-width="1920"
     inkscape:window-height="974"
     inkscape:window-x="-11"
     inkscape:window-y="-11"
     inkscape:window-maximized="1"
     inkscape:current-layer="svg20">
    <inkscape:page
       x="0"
       y="0"
       width="1668"
       height="614.3808"
       id="page20"
       margin="0 0 0"
       bleed="0" />
  </sodipodi:namedview>
  <path
     d="m 855,415.36174 -3,2 a 2,2 0 0 1 -2,-3 l 3,-3 6,-7 q 1,-2 3,-1 a 2,2 0 0 1 1,2 l -1,7 c 0,2 -5,3 -7,3 z"
     id="path1" />
  <path
     d="m 1408,36.36174 c -26,18 -61,37 -92,50 -38,16 -75,10 -120,24 -71,27 -128,95 -207,102 -61,-13 -111,1 -172,-8 -57,-8 -121,7 -174,-21 -49,-31 -109,-42 -162,-58 -17,-1 -57,-36 -86,-43 -22,-13 -27,-15 -45,-3 -5,3 -6,-1 -16,5 -8,3 -8,16 -9,19 -2,11 -4,17 22,28 -3,20 1,41 8,48 13,14 33,1 53,7 33,14 44,40 5,24 17,4 -82,-5 -118,-6 -63,3 -163,-10 -202,52 -11,49 -51,90 -41,139 35,61 113,81 173,107 67,9 109,65 171,86 75,-8 156,-11 232,-6 92,-12 184,-13 277,-10 126,-1 252,1 378,-5 98,-17 199,-5 298,-14 57,-28 18,-110 21,-161 -18,-54 24,-125 -24,-167 -69,-5 -136,7 -204,12 -100,17 -200,-5 -300,0 -87,10 -174,9 -261,5 -64,4 8,-13 30,-5 33,7 114,1 171,-8 85,-10 125,-97 209,-108 57,3 153,-44 185,-85 z"
     id="path2" />
  <path
     fill="#bc9678"
     d="m 586,574.36174 c 30,-5 63,-13 95,-13 44,1 87,-9 131,-8 38,-5 77,-8 115,-2 48,3 96,-4 144,-2 39,-3 79,-3 118,-5 30,-7 65,2 96,-4 65,0 130,-6 195,-8 34,-4 69,-9 103,-10 38,6 6,32 -17,27 -70,6 -141,1 -211,4 -38,6 -76,9 -114,11 -58,2 -117,3 -175,1 -47,2 -95,3 -142,1 -33,2 -65,-4 -98,0 -38,2 -77,-4 -115,3 -34,1 -67,8 -101,9 -8,0 -16,-2 -24,-4 z m -411,-98 c -25,-5 -45,-21 -67,-31 -15,-13 -31,-25 -45,-39 -9,-12 -12,-48 1,-59 18,-13 14,-24 19,-43 11,-19 4,-41 22,-56 28,-25 66,-35 103,-33 58,-8 118,2 176,6 -13,5 -27,1 -40,3 -44,-1 -89,-5 -131,8 -19,4 -39,7 -57,14 -22,4 -35,28 -38,49 -1,15 -6,42 -17,54 -18,29 -13,62 14,87 20,13 42,23 60,40 z"
     id="path3" />
  <g
     fill="#ddc1af"
     id="g5"
     transform="translate(0,-140.63826)">
    <path
       d="m 914,575 -9,9 -1,-1 -1,-2 1,-12 v -1 q 10,-3 20,-3 z m -676,-17 -1,-17 v -6 h 2 l 8,9 v 3 l -7,11 z m 189,-47 -2,-2 -6,-5 v -1 l 8,-5 7,-5 4,-4 8,-4 1,1 c -2,3 -5,6 -6,10 l -12,20 q -3,3 -2,-1 z m -178,-3 -7,12 a 1,1 0 0 1 -2,0 l -2,-13 z m 708,11 c 2,-3 1,-7 -3,-9 -3,-2 -7,-2 -11,-1 l -11,2 1,-7 c 7,1 14,0 20,-2 4,-1 5,-6 4,-9 0,-3 -2,-6 -5,-7 -3,-2 -7,-1 -11,-2 -2,0 -6,1 -8,-1 -1,-2 -3,-4 -1,-5 3,-3 7,-5 11,-5 l 17,-1 c 2,3 0,6 0,9 v 25 c -1,7 2,15 1,23 -2,2 -5,1 -7,3 l -8,6 c -3,2 -7,2 -11,3 -3,0 -1,-5 -2,-7 -1,-4 3,-5 6,-4 7,0 15,-4 18,-11 z"
       id="path4" />
    <path
       d="m 899,682 c -66,3 -131,10 -197,14 -62,-1 -122,21 -185,14 -52,3 -106,15 -157,-3 -31,-49 -94,-49 -140,-72 -35,-24 -91,-43 -116,-83 -8,-51 20,-99 33,-145 38,-32 97,-32 145,-38 44,0 87,-1 129,8 47,-5 93,8 141,7 47,-5 94,0 132,15 22,-26 80,-2 115,-11 54,1 109,2 163,6 50,10 104,-4 156,-4 58,5 117,19 177,13 85,5 172,4 257,-2 73,-22 32,73 42,115 7,50 12,99 10,149 -36,-15 -77,-1 -115,2 l -218,10 c -53,-2 -104,4 -158,6 -69,-1 -138,8 -207,2 l -3,-2 z M 252,570 c 48,-25 21,-43 5,-53 32,-4 38,-43 -3,-33 -31,13 0,-44 24,-40 64,-26 -39,-64 -30,-15 -49,32 -29,85 -41,134 -7,63 79,18 105,57 38,-28 8,-89 14,-130 17,-53 -72,-58 -73,-16 72,-37 29,61 44,99 z M 536,435 c 8,52 73,12 21,-11 -5,0 -26,2 -21,11 z m 668,159 c 26,-20 22,-51 18,-78 33,-5 36,-58 3,-53 -3,66 -10,-73 -25,-13 -1,26 9,56 -25,46 7,13 42,27 9,45 -32,19 11,46 4,72 39,14 119,32 132,-21 4,-27 -45,-71 -22,-16 -13,26 -69,38 -94,19 z m -122,15 c 8,23 96,63 47,11 -48,-34 -37,-93 -38,-143 5,-29 -42,-65 -19,-13 6,47 -25,101 7,143 z M 417,525 c -19,4 -59,-2 -28,25 17,-1 31,-10 13,7 -34,-17 2,55 17,11 11,-17 55,-78 55,-42 -34,11 -16,71 13,28 28,-11 30,3 34,14 37,20 58,-17 16,-32 -29,2 -46,-23 -8,-26 40,-12 13,-46 -14,-32 19,-33 -22,-56 -40,-28 45,15 -23,86 2,30 -3,-32 -37,-1 -36,-38 -33,11 -56,81 -43,63 -23,5 11,22 19,20 z m 1032,-54 c 32,24 70,106 114,66 -35,-23 -72,-47 -101,-81 23,-32 -62,-17 -30,-3 -24,30 -54,66 -93,70 13,62 87,-26 109,-52 z m -576,-2 c -21,3 -55,1 -20,23 -20,16 13,34 -28,33 -54,10 -14,35 22,17 -42,12 -21,46 8,27 17,4 -2,47 -6,12 -29,-14 -44,25 -8,21 15,44 54,19 38,-19 -10,-24 32,-28 5,-47 12,-11 31,-45 4,-50 10,-16 3,-36 -9,-42 -7,-4 -17,-2 -25,9 4,8 13,12 19,16 z m 428,4 c -16,17 1,21 16,18 16,-3 30,-16 0,-32 -23,-14 -34,-11 -16,14 z M 938,579 c -33,57 98,76 94,30 -3,-27 -40,-61 -20,-12 -8,35 -91,4 -45,-30 -27,-31 33,15 22,-30 -2,-33 -3,-111 -54,-72 -40,3 -9,68 -38,87 19,27 -35,-1 -13,30 43,-6 -32,51 16,34 14,-9 30,-26 38,-37 z m -296,7 c -8,-30 44,-104 1,-107 -9,45 -50,114 -1,148 26,-9 30,-107 5,-45 l -4,5 z m 81,-77 c 2,30 70,-36 19,-29 -20,-6 -70,44 -19,29 z m 740,22 c 44,-37 -71,-29 -44,-5 20,12 56,3 14,20 -19,7 -75,-2 -30,22 18,-1 -45,39 -1,44 30,12 75,-29 90,-20 -42,17 44,30 25,-9 -14,-17 -47,-38 -49,-6 -58,14 3,-18 11,-35 0,-8 -11,-6 -16,-11 z m -741,41 c -18,-29 -40,-25 -23,9 11,36 122,56 73,6 -17,-6 -35,-3 -50,-15 z m -179,32 c -47,37 71,23 52,-11 -49,-43 -108,11 -161,1 -26,3 -58,-3 -76,-2 0,56 60,-5 85,33 36,5 63,-29 100,-21 z"
       id="path5" />
  </g>
  <path
     fill="#bc9678"
     d="m 687,225.36174 c 4,4 10,4 14,6 9,1 16,4 25,4 l 63,-3 18,-3 c 4,1 19,3 13,3 l -34,5 -12,4 c -6,2 -13,2 -19,3 -10,1 -19,-2 -29,-2 -11,0 -22,3 -33,1 -6,-2 -4,-10 -6,-15 z m -217,-5 c -3,-8 1,-16 -1,-23 -2,-8 4,-7 9,-5 10,3 18,11 29,12 l 24,5 23,5 c 13,2 27,5 41,6 7,1 14,3 22,3 8,0 13,7 20,11 7,5 -6,4 -9,3 -12,-2 -24,-1 -36,-2 -21,0 -43,5 -64,1 -18,-2 -36,-4 -53,-11 z m -114,-132 17,-1 c 1,-1 2,0 1,1 l -2,2 -4,2 c -3,0 -7,0 -10,-2 z m 87,116 c -13,-5 -24,-15 -30,-28 -4,-4 -9,-4 -13,-8 l -27,-19 c -5,-5 -11,-11 -18,-14 4,-2 8,1 13,1 5,-1 10,3 15,5 6,3 13,3 19,7 7,4 14,8 21,9 9,3 15,9 23,13 3,2 10,5 4,7 -6,5 -10,13 -7,20 z"
     id="path6" />
  <path
     fill="#fd0055"
     d="m 361,101.36174 -3,1 -15,2 c -4,0 -8,-2 -10,-5 l -2,-2 h 2 l 11,2 a 756,756 0 0 0 17,2 z"
     id="path7" />
  <path
     fill="#ce9584"
     d="m 623,220.36174 c 2,-2 5,2 8,2 1,1 5,2 3,-1 -3,-2 0,-3 1,-1 3,1 5,2 7,5 4,1 -1,-5 -1,-7 -1,-2 -1,-6 2,-4 l 8,6 7,4 c 5,0 8,4 9,8 0,2 3,6 4,6 l -5,-11 c -2,-4 -6,-4 -9,-5 -5,-2 -9,-5 -13,-9 -3,-2 -2,-6 0,-9 l 4,-8 c 2,-4 8,-4 12,-3 6,1 11,5 13,11 4,7 10,15 12,24 l 3,19 c -1,5 -4,11 -9,11 -5,1 -10,0 -14,-3 l -13,-8 -10,-11 -11,-8 -8,-7 z m -252,-136 -16,1 v -1 c 0,-6 8,-8 13,-7 4,0 4,3 4,6 a 1,1 0 0 1 -1,1 z m -12,86 c -2,0 -5,2 -3,-1 1,-2 1,-5 -2,-6 -1,-3 1,-6 1,-9 1,-2 0,-4 -2,-4 -2,-2 2,-5 -1,-6 -1,-1 -3,-1 -2,-2 1,-3 -1,-5 -1,-7 2,-1 4,2 6,3 7,4 13,10 18,15 l 9,7 14,9 8,5 c 0,3 -3,2 -5,1 -2,1 -4,3 -6,1 -2,0 -3,4 -4,1 -2,-3 -5,1 -6,2 -3,2 -1,-4 -4,-4 -3,-1 -4,5 -7,3 -1,-3 -3,-1 -5,1 -1,-1 0,-5 -3,-4 l -6,3 1,-7 z m 82,51 c 2,-6 8,-8 13,-11 2,-4 -5,-1 -6,0 -4,-1 0,-7 -2,-10 0,-5 -2,-9 0,-14 2,-4 6,-8 10,-8 5,0 6,5 8,8 4,7 2,15 2,22 0,6 0,13 -4,18 -4,3 -10,3 -14,5 -6,2 -11,4 -17,3 a 1059,1059 0 0 0 -47,-3 c -2,-3 5,-1 6,-2 4,-2 10,-2 13,-4 0,-1 -6,-4 -1,-3 h 10 c 1,-4 -5,-4 -8,-6 -1,0 -7,-3 -4,-3 7,1 13,6 19,9 5,2 11,2 16,0 z"
     id="path8" />
  <path
     fill="#ffcba2"
     d="m 1402,41.36174 c -25,22 -62,49 -95,58 -32,14 -57,13 -92,20 -33,8 -67,22 -89,48 -36,32 -81,50 -127,60 -29,-2 -58,2 -87,-1 -15,-9 -22,17 -42,10 -31,0 -59,-17 -89,-7 -32,-1 -72,11 -98,-12 -18,-29 31,-10 45,-11 33,10 67,-4 99,3 27,8 57,16 83,2 33,-7 65,16 98,3 32,-7 61,-22 90,-37 27,-19 49,-47 82,-57 35,-15 60,-16 97,-19 42,-8 90,-37 125,-60 z m -879,100 c 10,8 26,4 36,12 5,5 13,-1 13,7 14,-1 23,10 36,11 14,2 24,11 37,15 10,9 -12,20 -7,33 -3,-4 -22,-18 -13,-4 2,5 -17,-6 -10,5 -12,1 -26,-3 -39,-4 l -69,-14 c -15,-5 -32,-10 -44,-22 -18,-15 -39,-25 -60,-33 -10,-5 -21,-9 -32,-12 -16,3 -24,-14 -38,-16 -13,-3 -3,-17 7,-12 9,-1 28,-2 30,-8 -12,-5 -27,1 -38,-6 -1,-9 26,-16 21,-2 8,7 29,4 25,-9 10,6 31,8 36,10 -5,6 11,2 8,9 7,-1 17,5 16,9 -8,7 15,1 5,8 12,1 23,10 32,12 13,-1 23,13 38,11 z"
     id="path9" />
  <g
     fill="#33602d"
     id="g11"
     transform="translate(0,-140.63826)">
    <path
       d="m 1416,570 c -2,-6 -9,-5 -14,-6 -4,-3 -8,-8 -13,-9 -2,-5 8,0 11,0 10,2 20,-2 29,-4 8,-1 15,-5 22,-9 4,0 6,-6 9,-7 4,3 9,3 13,5 4,2 2,9 -2,10 -10,6 -20,11 -29,19 -3,3 -8,8 -6,14 3,4 10,2 14,2 l 21,-4 c 5,-2 7,-7 6,-12 -1,-4 1,-8 6,-5 6,2 12,5 16,9 6,4 11,9 15,14 3,5 0,10 -3,14 -5,5 -11,7 -17,7 -4,0 -9,-4 -10,-8 6,-1 12,-4 13,-10 0,-5 -7,-12 -13,-9 -8,6 -15,15 -25,18 -10,5 -21,5 -32,6 -10,2 -20,3 -31,3 -6,-3 -2,-13 -3,-18 0,-7 9,-7 13,-10 4,-3 11,-5 10,-10 z m 33,-40 c -6,0 -12,1 -18,-1 -3,-1 -7,-2 -9,-5 l -5,-5 c 0,-3 4,-2 6,-3 l 21,-6 c 6,-2 13,-4 20,-2 4,2 7,8 5,12 -2,4 -5,7 -9,8 -3,2 -6,1 -9,2 z"
       id="path10" />
    <path
       d="m 1447,467 c -17,19 -32,39 -53,54 -7,6 -14,12 -23,16 -7,5 -17,11 -25,5 -7,-5 -7,-22 4,-20 10,0 20,-2 27,-9 14,-12 29,-24 41,-38 4,-8 18,-13 16,-23 -4,-3 -9,-7 -1,-9 8,-5 21,-5 29,1 3,7 -8,13 2,17 8,6 15,14 21,22 7,9 15,17 25,23 9,8 19,15 30,18 7,3 17,6 19,14 -2,10 -16,7 -24,6 -15,-2 -28,-11 -37,-23 -9,-11 -16,-24 -28,-34 -7,-7 -13,-17 -23,-20 z"
       id="path11" />
  </g>
  <path
     d="m 1301,332.36174 -5,-11 c -2,-3 -7,-8 -3,-11 7,-1 13,2 19,5 8,4 14,11 19,18 3,4 5,11 0,14 -5,5 -13,5 -20,5 -7,0 -14,-1 -19,-6 -2,-5 4,-8 6,-11 z m -97,122 c 8,10 22,9 33,8 18,-1 35,-5 51,-14 10,0 12,-12 9,-19 0,-7 -10,-21 0,-22 8,4 13,14 18,22 5,12 8,27 1,39 -5,9 -15,15 -25,14 -14,1 -27,4 -41,3 -14,-1 -29,-1 -44,-6 -7,-3 -18,-4 -21,-13 -4,-10 4,-22 -4,-30 -9,-6 -15,-19 -6,-28 4,-9 19,-7 20,-19 0,-8 0,-20 -12,-19 -8,-2 -23,-12 -14,-20 8,-2 19,5 26,-2 6,-9 0,-21 3,-32 3,-7 0,-23 11,-23 10,6 7,20 9,30 1,5 -1,24 8,15 1,-6 -5,-23 6,-18 7,7 15,14 20,23 -2,14 -15,24 -29,27 -2,9 -2,21 4,28 5,10 -8,19 -6,31 2,13 -11,16 -17,25 z m 93,-43 c 1,1 0,-1 0,0 z"
     id="path12" />
  <path
     fill="#f4d7d7"
     stroke="#ddc1af"
     d="m 1196,413.36174 -3,6 v 4 l 2,2 h 3 l 1,-2 v -7 z"
     id="path13" />
  <g
     fill="#33602d"
     id="g15"
     transform="translate(0,-140.63826)">
    <path
       d="m 886,577 -1,-8 c 0,-2 1,-2 2,-2 4,0 7,2 11,3 1,0 2,0 2,2 l -1,9 h -1 l -11,-3 z m 1,-111 c -4,1 -10,0 -14,-2 l -14,-11 c 0,-2 2,-1 4,-2 l 15,-4 c 3,-1 5,-1 7,1 2,2 2,4 2,7 l 1,10 z m 68,94 c 3,1 9,3 7,8 -2,4 -6,7 -8,12 l -5,15 c -1,6 4,10 8,13 7,4 15,5 23,6 10,1 20,2 30,-1 5,-2 5,-8 6,-12 1,-7 0,-14 -2,-20 l 9,15 7,18 c 1,4 2,9 -2,10 a 152,152 0 0 1 -57,2 c -5,-1 -10,1 -14,-2 -7,-4 -13,-11 -18,-17 -3,-4 -2,-10 -1,-14 2,-6 4,-12 4,-19 1,-4 6,-7 8,-10 2,-1 3,-4 5,-4 z"
       id="path14" />
    <path
       d="m 886,498 c -6,-5 -14,-1 -18,4 -5,3 -10,11 -17,10 -4,-4 -3,-12 2,-14 6,-3 6,-11 -1,-11 -3,-2 -9,-8 -8,-10 9,1 17,-1 26,-3 5,-1 13,-4 17,2 3,6 -12,14 -1,15 5,0 15,0 14,8 -2,7 -11,9 -12,16 0,4 11,1 6,7 -5,6 -14,7 -15,15 -1,8 11,9 11,15 -6,4 -15,6 -16,14 v 28 l 1,24 c -4,8 -15,4 -19,-2 -7,-5 -8,-15 -15,-19 -7,1 -17,2 -19,-7 -1,-9 10,-1 15,-5 5,-2 11,-2 9,5 -1,7 9,9 14,9 7,-1 2,-9 3,-14 v -19 c -3,-7 -11,1 -16,2 -6,6 -12,0 -16,-5 -1,-5 10,-8 13,-12 6,-5 16,-10 16,-17 -8,-1 -16,3 -23,4 l -25,7 c -3,-2 -6,-8 -6,-10 11,-5 22,-5 33,-9 l 17,-6 c 6,-1 12,-1 17,-4 7,-4 10,-11 13,-18 z m -31,58 c 7,3 11,-13 5,-11 -4,3 -11,8 -9,13 z m 76,-13 c 6,1 14,1 19,-4 3,-5 10,-5 14,-8 2,-6 -1,-13 -1,-20 -1,-7 2,-13 1,-20 v -16 c 1,-10 -10,-6 -15,-6 l -13,1 c 4,-5 8,-12 15,-12 7,-1 16,-1 21,5 5,5 11,12 10,18 -3,6 -1,13 -1,20 -1,9 1,17 3,26 2,6 4,13 2,19 -2,6 -6,14 -13,11 -6,-1 -9,-13 -16,-5 l -14,14 -13,17 c -4,5 -7,10 -12,14 l -16,13 c -3,2 -9,8 -13,7 -2,-7 -5,-16 4,-19 l 19,-16 c 5,-6 14,-10 16,-19 -4,-4 -13,0 -19,1 -6,3 -6,-7 -9,-10 4,-5 14,-6 10,-14 l 2,-23 c 3,-8 6,-16 6,-25 1,-6 -1,-13 2,-18 5,0 8,6 10,10 4,6 13,2 19,4 9,0 6,15 -3,12 -5,2 -11,1 -17,-1 v 15 c 6,2 13,-2 19,-3 11,0 6,13 -1,14 -5,3 -16,-2 -17,6 z"
       id="path15" />
  </g>
  <path
     d="m 710,422.36174 15,11 c 10,6 22,10 34,9 8,0 15,4 21,10 6,5 10,13 7,20 -2,5 -8,6 -13,6 -8,0 -15,-3 -23,-4 -11,-2 -22,-8 -31,-14 l -16,-14 c -5,-4 -8,-10 -9,-16 -2,-7 -3,-14 0,-21 4,-3 8,2 10,6 z m 32,-81 c -5,0 -11,0 -15,3 -5,2 -10,3 -13,7 -5,4 -8,9 -10,14 -1,2 -1,4 1,3 l 18,-2 c 3,0 2,3 2,5 0,2 1,7 5,6 l 10,-10 c 4,-4 8,-8 14,-10 l 8,-7 c 0,-3 -3,-5 -5,-6 -5,-3 -10,-3 -15,-3 z m -100,104 c 3,1 6,-6 8,-9 l 8,-18 c 5,-3 8,6 8,10 -1,12 -5,22 -9,33 -2,6 -3,13 -6,19 -4,3 -10,9 -15,5 -8,-5 -10,-14 -13,-22 -4,-12 -5,-24 -4,-35 0,-8 2,-16 4,-24 l 10,-31 c 5,-7 7,-16 10,-24 2,-5 -2,-11 2,-14 4,-4 9,2 10,5 3,6 6,11 6,17 1,9 -2,17 -5,25 -4,13 -10,25 -13,37 -3,9 -3,18 -1,26 z"
     id="path16" />
  <path
     fill="#bc9678"
     d="m 980,252.36174 c 24,-5 49,-3 74,-8 38,-2 77,-3 115,1 l 114,6 c 41,-5 83,-8 124,-11 29,-3 57,-6 85,-7 29,-3 58,-5 86,0 21,11 14,29 -5,20 -40,0 -89,8 -130,8 -52,0 -103,-2 -155,-4 -44,2 -88,3 -130,-8 -26,-3 -51,-7 -76,-3 -34,4 -68,5 -102,6 z"
     id="path17" />
  <path
     d="m 538,436.36174 c -17,1 -35,5 -51,12 -13,4 -26,9 -40,8 -11,-2 -23,-6 -35,-4 -9,0 -17,2 -26,3 -8,3 -12,-6 -19,-10 -11,-2 -10,14 -6,21 3,7 8,17 17,13 10,-4 19,-9 30,-11 12,1 19,13 31,15 12,5 25,0 36,-3 13,-4 23,-12 36,-15 10,-3 20,-3 30,-3 5,5 -8,10 -10,14 -6,10 9,9 15,8 15,-1 31,-5 46,-12 7,-4 8,-15 2,-21 -9,-9 -21,-11 -32,-14 z m -121,-52 c -6,-1 -17,-2 -22,-8 -9,-5 -2,-15 7,-13 8,1 -5,-7 -2,-13 -1,-8 1,-16 8,-21 l 28,-27 c 9,-6 15,12 14,19 -2,8 10,-5 15,-1 8,3 15,12 12,21 -1,8 -5,14 -8,20 -1,4 8,-4 11,-4 7,-3 10,-10 10,-17 0,-8 1,-17 -7,-22 -5,-4 -15,-14 -2,-14 8,-2 14,-9 23,-9 10,2 15,13 14,22 1,7 -2,16 -2,22 10,-4 22,-6 31,0 9,4 2,15 -3,20 -9,10 -22,12 -34,15 -3,5 -9,14 1,13 l 30,9 c 7,5 14,11 19,18 6,9 -1,20 -12,17 l -28,-4 c -9,-1 -8,-10 0,-11 2,-5 -12,-7 -17,-7 -8,1 -17,4 -23,10 -6,5 -12,10 -19,11 -7,-2 -1,-12 -5,-18 -2,-4 -2,-10 3,-13 10,-4 15,-13 20,-22 l -17,-5 -25,31 -21,28 c -5,6 -15,14 -22,7 -3,-7 -4,-14 -6,-22 1,-11 12,2 16,-1 l 8,-11 c -8,2 -16,8 -24,5 -10,-4 -15,-17 -7,-24 8,-4 15,7 24,3 4,0 8,-1 12,-4 z m 10,-14 c 1,3 -1,10 3,3 6,-9 10,-19 17,-28 -6,-2 -11,7 -17,9 -2,4 -11,6 -11,9 z m 129,-87 c -7,0 -15,2 -21,7 -2,4 4,6 4,9 l 7,14 c 3,5 8,6 13,8 5,0 10,1 15,-1 5,-3 4,-9 3,-14 -1,-8 -6,-15 -13,-20 -2,-2 -5,-3 -8,-3 z"
     id="path18" />
  <path
     fill="#33602d"
     d="m 248,384.36174 c 11,2 23,2 32,9 -1,11 -17,12 -20,23 -3,4 -17,12 -9,16 16,1 32,1 48,5 1,-10 -1,-20 -2,-31 -2,-18 0,-37 1,-55 v -23 c -3,-14 -18,-4 -27,-2 -4,0 -14,3 -16,2 10,-9 20,-22 35,-23 11,0 21,6 28,14 9,11 5,27 5,40 0,16 2,31 3,47 l 2,36 c 0,10 -3,20 -8,29 -6,9 -17,3 -23,-4 -8,-7 -17,-13 -28,-12 -14,0 -28,5 -41,0 -8,-3 -20,-9 -20,-20 3,-18 7,-37 8,-55 1,-15 2,-31 0,-46 1,-9 12,-14 16,-22 l 25,-30 c -2,-7 -6,-19 7,-15 11,0 22,3 32,9 5,8 -5,15 -11,18 -15,12 -35,17 -47,33 -1,9 7,18 3,27 7,3 13,-12 23,-10 8,0 23,5 18,16 -8,9 -22,3 -29,15 z m 2,-21 c -7,-2 -19,0 -15,10 -1,10 13,12 13,1 2,-3 6,-8 2,-11 z m -13,27 c -6,8 -2,21 0,29 8,2 15,-11 12,-19 -2,-4 -8,-7 -12,-10 z"
     id="path19" />
  <path
     d="m 252,429.36174 33,2 c 6,1 15,4 11,-6 l -3,-33 c 0,-20 4,-39 2,-59 2,-16 -16,-5 -24,-4 -6,-1 -19,8 -20,-1 10,-8 18,-21 31,-25 15,-4 30,4 39,15 9,12 4,28 5,41 l 4,70 c 1,12 2,24 -3,35 -2,10 -12,19 -22,13 -11,-7 -19,-19 -33,-19 -14,0 -29,5 -43,0 -9,-4 -23,-7 -23,-20 0,-14 4,-28 5,-42 l 3,-30 c 0,-11 1,-21 -1,-31 -2,-11 12,-15 17,-24 l 23,-28 c 3,-7 -8,-15 3,-19 10,-2 20,1 30,4 8,2 21,9 12,19 -7,9 -17,14 -27,20 -11,6 -24,11 -31,22 5,5 3,19 6,20 8,-8 19,-10 29,-6 10,1 15,17 6,22 -7,5 -18,1 -23,10 -4,3 -8,8 0,8 9,1 21,2 26,11 0,10 -16,11 -19,21 -4,5 -10,8 -13,14 z m -4,-45 c 2,-8 11,-16 19,-18 10,2 22,-9 12,-18 -8,-3 -19,-7 -26,0 -3,4 -17,14 -12,2 4,-8 -5,-16 -2,-24 9,-12 24,-18 38,-26 7,-6 19,-10 21,-20 -4,-8 -14,-10 -22,-12 -7,-1 -26,-5 -20,6 5,8 -5,14 -9,20 -9,11 -17,23 -28,32 -6,7 -1,16 -2,24 l -2,38 c -1,17 -6,34 -6,51 3,12 17,15 27,18 16,3 32,-7 48,0 9,5 15,14 24,18 9,4 14,-6 16,-13 4,-10 5,-21 3,-32 l -3,-45 v -47 c 0,-11 -4,-20 -13,-25 -10,-8 -25,-11 -36,-3 -7,5 -16,12 -19,19 l 36,-9 c 10,4 4,18 6,26 0,20 -4,39 -1,59 2,9 1,19 3,28 -1,8 -12,-1 -19,1 l -26,-2 c -9,4 -9,-6 -2,-9 8,-8 15,-20 27,-25 1,-11 -15,-11 -23,-13 z"
     id="path20" />
</svg>
