<?xml version="1.0" encoding="UTF-8" standalone="no"?>
<svg
   viewBox="0 0 1074.1543 441.35319"
   version="1.1"
   id="svg18"
   sodipodi:docname="Member.svg"
   width="1074.1543"
   height="441.35318"
   inkscape:version="1.3.2 (091e20e, 2023-11-25, custom)"
   xmlns:inkscape="http://www.inkscape.org/namespaces/inkscape"
   xmlns:sodipodi="http://sodipodi.sourceforge.net/DTD/sodipodi-0.dtd"
   xmlns="http://www.w3.org/2000/svg"
   xmlns:svg="http://www.w3.org/2000/svg">
  <defs
     id="defs18" />
  <sodipodi:namedview
     id="namedview18"
     pagecolor="#ffffff"
     bordercolor="#000000"
     borderopacity="0.25"
     inkscape:showpageshadow="2"
     inkscape:pageopacity="0.0"
     inkscape:pagecheckerboard="0"
     inkscape:deskcolor="#d1d1d1"
     inkscape:zoom="0.68425926"
     inkscape:cx="540"
     inkscape:cy="217.75372"
     inkscape:window-width="1920"
     inkscape:window-height="974"
     inkscape:window-x="-11"
     inkscape:window-y="-11"
     inkscape:window-maximized="1"
     inkscape:current-layer="svg18" />
  <path
     fill="#3f3f3f"
     d="m 186,399.48444 c -40,-4 -80,-23 -121,-11 -49,-10 -19,-75 -22,-111 -4,-41 -13,-82 -9,-124 2,-28 -11,-85.000002 37,-71.000002 l 163,-1 c 35,-5 71,-9 106,-5 45,-9 90,-17 136,-13 46,2 91,8 136,-2 71,-11 143,9 213,-3 55,-4 108,-19 162,-25 41,-7 60,27 46,62 3,47.000002 0,93.000002 1,139.000002 0,44 2,88 -2,131 -8,32 -61,2 -88,13 -53,2 -107,5 -161,5 -66,-17 -135,-5 -201,11 -45,12 -91,-5 -137,2 -48,6 -95,8 -143,6 -39,1 -78,7 -116,-3 z M 991,52.484438 c 14,5 54,-2 20,-11 -50,-10 -98,14 -147,17 -54,7 -109,14 -163,5 -43,0 -89,-2 -131,11 37,17 82,4 122,3 57,-5 114,10 170,-3 43,-10 86,-17 129,-22 z m -452,22 c -45,-7 -92,-5 -138,-3 -41,11 -83,11 -126,10 -42,9 -84,4 -126,6 -34,11 -93,-21 -108,21.000002 0,43 -5,87 4,130 10,40 -3,80 0,120 16,28 61,-9 90,7 48,11 98,24 148,17 68,-4 137,-13 205,-3 63,4 122,-25 185,-20 56,4 111,28 168,16 52,1 103,-4 154,-4 54,17 27,-62 33,-91 1,-42 -3,-84 1,-126 -7,-31 5,-69.000002 -5,-97.000002 -42,0 -84,7 -125,15 -53,13 -108,17 -162,10 -49,-3 -98,11 -146,4 -18,-3 -34,-9 -52,-12 z M 48,379.48444 c 44,-2 89,1 131,14 53,12 107,-1 160,3 61,4 121,-14 183,-5 62,9 121,-27 183,-21 -60,-15 -120,7 -180,15 -57,3 -114,-11 -171,-1 -63,2 -127,15 -188,-6 -36,-8 -90,-15 -118,1 z m 659,-9 c -2,2 4,0 0,0 z"
     id="path1" />
  <path
     fill="#bc9678"
     d="m 991,52.484438 -86,13 c -23,8 -47,7 -70,15 -19,0 -39,-2 -58,0 -20,0 -40,-6 -61,-4 -19,0 -39,5 -58,4 -24,0 -49,6 -73,0 -8,0 -28,-8 -9,-9 27,-4 54,-9 82,-8 27,1 55,-2 82,5 27,1 53,-3 79,-4 29,-5 60,-6 89,-12 14,-3 29,-8 44,-10 21,-2 44,-9 64,0 9,0 19,14 4,11 -10,0 -19,-2 -29,-1 z"
     id="path2" />
  <path
     d="m 533,74.484438 c 34,3 68,22 104,13 43,0 86,-11 129,-2 34,0 68,2 101,-6 40,-9 81,-17 122,-21 21,0 55,-9 39,26 -4,38.000002 6,75.000002 -2,113.000002 5,42 0,84 3,126 -3,25 5,69 -34,48 -51,0 -102,5 -154,4 -34,5 -69,4 -103,-6 -36,-7 -72,-14 -109,-8 -47,2 -91,23 -138,17 -45,-2 -90,-7 -134,0 -61,0 -122,14 -181,-4 -33,-8 -66,-16 -100,-9 -23,8 -39,4 -31,-24 -4,-35 14,-71 -2,-104 -5,-35 -2,-71 -3,-106 1,-24 -4,-52.000002 31,-43.000002 38,-2 75,2 113,-2 51,8 102,-13 153,-3 32,-3 64,-17 98,-14 32,2 66,-3 98,5 z"
     id="path3" />
  <path
     fill="#e4c9b5"
     d="m 533,74.484438 c 34,3 68,22 104,13 43,0 86,-11 129,-2 34,0 68,2 101,-6 40,-9 81,-17 122,-21 21,0 55,-9 39,26 -4,38.000002 6,75.000002 -2,113.000002 5,42 0,84 3,126 -3,25 5,69 -34,48 -51,0 -102,5 -154,4 -34,5 -69,4 -103,-6 -36,-7 -72,-14 -109,-8 -47,2 -91,23 -138,17 -45,-2 -90,-7 -134,0 -61,0 -122,14 -181,-4 -33,-8 -66,-16 -100,-9 -23,8 -39,4 -31,-24 -4,-35 14,-71 -2,-104 -5,-35 -2,-71 -3,-106 1,-24 -4,-52.000002 31,-43.000002 38,-2 75,2 113,-2 51,8 102,-13 153,-3 32,-3 64,-17 98,-14 32,2 66,-3 98,5 z M 189,137.48444 c -6,-29 -21,-4 -28,4 -18,-2 -45,23 -11,21 20,-9 80,13 71,-20 -10,-5 -22,-3 -32,-5 z m 181,31 c -10,21 48,7 62,10 30,8 55,-11 46,-41 -29,-18 -66,-11 -98,-5 -22,2 -21,22 -10,36 z m 486,-12 c 27,18 56,53 91,41 19,-24 -43,-23 -54,-43 -19,-11 -43,-44 -56,-6 -14,22 -44,36 -63,42 5,39 56,5 68,-15 6,-6 9,-13 14,-19 z m -180,3 c -3,21 -63,48 -24,55 43,-1 15,-77 58,-57 6,21 -16,29 -25,32 31,46 68,-33 36,-54 -18,-11 -90,-7 -71,22 8,3 20,-1 26,2 z m -88,39 c -26,19 -9,49 21,35 31,-3 20,-33 12,-47 20,-40 -21,-29 -29,-4 -1,-8 33,-64 -2,-43 -14,16 -40,55 -2,59 z m -307,-25 c -20,25 26,63 -15,73 29,28 60,-26 27,-43 38,-38 -18,-76 -53,-46 -12,19 32,15 41,16 z m -84,13 c 30,3 -1,-41 -4,-5 z m -37,4 c 26,-21 -33,-31 -7,-1 z m 235,72 c 28,8 83,10 85,-31 22,-46 -29,-55 -63,-48 -32,0 -67,19 -45,54 1,13 9,25 23,25 z m -152,-66 c -4,27 -8,88 8,99 13,-30 16,-67 5,-99 -2,-7 -10,-6 -13,0 z m -78,17 c 18,-3 74,7 61,-18 -33,-6 -71,-6 -100,12 0,20 28,5 39,6 z m 730,78 c 14,-28 16,-83 -10,-98 -11,27 -11,77 7,100 z m -90,-26 c -22,-13 5,36 21,11 24,-13 28,-76 6,-78 -13,21 -6,52 -27,67 z m -145,-32 c -23,-8 -18,64 5,56 30,7 79,8 67,-38 2,-34 -53,-36 -72,-18 z m -498,-5 c -40,8 -2,72 32,50 36,0 30,-69 -10,-54 -7,0 -15,1 -22,4 z m 459,21 c 12,42 30,-17 0,0 z m -15,0 c -30,-8 4,51 7,12 0,-5 -3,-10 -7,-12 z m -37,-2 c -24,22 24,53 14,15 -3,-6 -7,-13 -14,-15 z m -66,34 c -9,-22 -65,-12 -28,8 8,6 30,8 28,-8 z m -132,-4 c -38,22 53,19 22,-5 z"
     id="path4" />
  <path
     d="m 190,137.48444 c 11,1 22,1 32,5 4,3 3,10 0,13 -5,5 -12,6 -19,6 -12,-1 -25,-2 -37,0 l -23,1 c -4,0 -9,-2 -11,-6 0,-5 5,-7 8,-9 l 24,-6 c 5,0 3,-6 4,-9 0,-4 3,-7 6,-9 4,-2 8,1 11,3 3,3 4,7 5,11 z m 180,30 c -4,-6 -9,-13 -8,-21 0,-7 7,-11 13,-13 a 213,213 0 0 1 89,-4 c 6,2 13,5 16,11 3,5 -1,10 -3,14 -2,6 -3,11 -3,17 -2,6 -8,6 -13,6 l -84,2 c -4,-1 -9,-3 -12,-6 1,-2 4,-3 5,-6 z m 76,-9 1,-9 c -2,-4 -8,-2 -13,-2 -14,0 -28,-1 -43,1 -4,0 -1,3 0,4 l 5,9 h 13 l 32,-3 z m 410,-2 -12,17 c -12,14 -27,28 -45,34 -6,1 -14,2 -20,-2 -6,-4 -6,-12 -4,-18 2,-7 10,3 15,-2 17,-8 32,-20 44,-34 6,-5 9,-12 13,-18 4,-6 14,-7 18,0 9,10 21,16 31,23 15,11 32,20 50,25 9,1 10,12 2,15 -5,4 -11,6 -17,5 -14,-2 -25,-11 -37,-17 -12,-7 -23,-16 -34,-25 z m -180,3 c -2,-2 -8,-1 -12,-1 -5,0 -11,1 -16,-3 -4,-3 -5,-9 -3,-13 7,-5 16,-7 24,-9 15,-4 31,-5 46,-1 7,2 14,9 16,16 1,11 1,21 -1,32 -2,11 -11,22 -22,24 -7,2 -13,-4 -17,-8 -2,-3 -9,-8 -5,-11 5,0 10,3 14,0 7,-4 8,-12 10,-19 0,-4 1,-8 -1,-10 -5,-4 -12,-2 -18,-1 -4,0 -8,1 -5,5 3,6 0,12 -2,18 -5,14 -13,28 -27,35 -6,2 -15,3 -19,-3 -3,-3 -3,-9 1,-11 8,-4 15,-9 20,-16 l 16,-21 z m -88,39 c -3,-3 -9,-1 -13,-4 -5,-1 -8,-6 -7,-11 -1,-10 5,-19 10,-28 5,-7 10,-15 17,-21 3,-3 8,-1 11,2 3,5 1,10 -1,14 -3,9 -9,16 -13,23 -1,3 -5,8 0,9 3,0 6,-1 6,-4 3,-7 6,-15 12,-20 6,-5 15,-1 16,5 2,7 -1,13 -4,19 -1,3 -5,8 -1,11 7,3 9,11 10,18 1,7 -3,14 -9,17 -10,6 -22,8 -33,7 -6,-1 -13,-2 -15,-8 -2,-5 0,-10 3,-14 l 10,-13 z m 24,4 -14,18 h 13 c 3,-1 11,-2 9,-7 -1,-4 -5,-8 -8,-11 z"
     id="path5" />
  <path
     fill="#e4c9b5"
     d="m 447,149.48444 -1,9 h -7 l -16,1 -24,2 c -1,1 -3,0 -4,-1 l -6,-11 c 1,-2 4,-1 6,-2 h 51 l 1,1 z"
     id="path6" />
  <path
     d="m 280,172.48444 c -12,0 -25,2 -36,-3 -4,-2 -9,-7 -5,-11 4,-4 10,-5 16,-7 11,-3 23,-6 34,-3 6,3 11,8 14,14 4,7 3,16 0,23 l -10,19 c 6,4 12,10 13,17 3,10 1,23 -9,29 -8,5 -19,4 -28,-1 -5,-2 -1,-7 3,-7 5,-1 12,-4 13,-10 2,-9 -4,-16 -7,-24 -2,-4 -5,-10 -3,-15 l 6,-20 v -1 z"
     id="path7" />
  <ellipse
     rx="10.6"
     ry="9"
     transform="rotate(116)"
     id="ellipse7"
     cx="72.89505"
     cy="-258.93457" />
  <ellipse
     rx="11.9"
     ry="10"
     transform="rotate(71)"
     id="ellipse8"
     cx="223.47646"
     cy="-87.181999" />
  <path
     d="m 389,261.48444 c -8,-1 -13,-9 -15,-17 l -8,-34 c -2,-4 0,-10 4,-13 9,-6 20,-9 31,-12 19,-3 38,-4 57,-2 9,1 18,4 24,10 5,5 2,11 1,17 l -4,30 c -2,10 -11,18 -20,22 -14,4 -28,4 -41,4 -6,0 -11,1 -16,-1 -4,-2 -8,-4 -13,-4 z m 73,-56 c -1,-2 0,-6 -4,-7 -18,-1 -37,0 -55,3 -6,1 -11,1 -16,3 -2,5 4,11 9,8 a 469,469 0 0 1 66,-7 z m -65,18 c -4,1 -1,6 0,8 l 16,-2 43,-1 c 6,0 5,-8 -1,-6 z m 50,18 -46,3 c -4,4 0,8 5,6 15,-4 31,-3 47,-5 4,1 7,-6 1,-5 z m -204,-45 c 2,-3 7,-7 10,-3 7,7 8,18 9,27 1,17 0,35 -3,52 -2,9 -5,17 -9,25 -2,5 -5,0 -5,-3 l -4,-27 -1,-21 c 1,-12 0,-24 -1,-36 0,-5 0,-10 4,-14 z m -77,18 -29,4 c -4,-1 -10,-4 -11,-8 -1,-4 4,-7 7,-8 a 154,154 0 0 1 62,-10 c 12,1 23,0 33,4 5,1 2,7 1,10 -5,6 -14,6 -21,6 -14,1 -28,0 -43,2 z m 729,77 c -2,4 -7,2 -9,-2 -4,-7 -5,-16 -5,-24 -2,-20 -2,-41 -2,-61 0,-5 3,-9 7,-12 4,-1 8,2 10,6 3,5 3,11 5,16 2,17 4,34 3,51 -1,9 -4,18 -9,26 z m -90,-26 c 6,-2 8,-8 11,-13 l 8,-29 c 2,-10 4,-21 10,-29 4,1 6,6 8,9 4,12 4,24 4,36 -1,12 -7,23 -14,32 -4,4 -9,8 -15,10 -6,2 -13,0 -18,-5 -3,-4 -4,-11 0,-16 2,1 3,6 6,5 z"
     id="path8" />
  <path
     fill="#e4c9b5"
     d="m 462,205.48444 c -1,4 -6,2 -8,2 -21,1 -42,2 -62,5 -3,0 -4,-3 -5,-5 -2,-4 3,-4 6,-4 l 23,-4 c 14,-2 28,-2 42,-1 3,0 3,3 3,5 z m 150,-3 2,2 c 2,2 5,5 6,9 v 3 c -2,3 -6,4 -10,4 h -12 l 1,-1 z"
     id="path9" />
  <path
     d="m 661,233.48444 c 6,-5 13,-10 21,-11 h 19 c 6,1 10,5 15,5 4,-1 9,1 11,5 5,7 5,15 5,23 1,7 0,15 -1,22 -2,6 -6,11 -11,15 l -13,-1 -35,-1 c -3,-1 -8,-3 -11,1 -4,1 -7,-4 -9,-7 -6,-12 -7,-26 -6,-39 1,-6 3,-11 7,-15 3,0 5,3 8,3 z m 50,15 c -9,-3 -19,-4 -29,-4 h -15 l 1,12 3,16 c 6,-1 11,-4 18,-4 h 19 c 4,-1 2,-7 3,-11 z"
     id="path10" />
  <path
     fill="#e4c9b5"
     d="m 397,223.48444 42,-1 21,1 c 1,1 0,4 -2,5 h -13 c -16,0 -31,1 -46,3 -2,1 -3,-1 -3,-3 -1,-1 -2,-3 -1,-4 z"
     id="path11" />
  <path
     d="m 162,228.48444 c 14,-4 28,-6 42,-3 7,2 14,8 15,16 0,7 -3,14 -4,20 l -7,14 c -3,3 -8,2 -12,3 l -34,1 c -5,-2 -8,-7 -11,-12 -4,-9 -7,-19 -6,-29 1,-5 5,-10 11,-10 z m 32,32 2,-14 c 1,-5 -5,-4 -8,-4 h -20 c -2,3 2,6 3,10 l 2,11 z"
     id="path12" />
  <path
     fill="#e4c9b5"
     d="m 447,241.48444 9,-1 c 3,2 1,5 -1,5 l -12,1 c -13,0 -25,1 -37,4 -2,0 -5,1 -6,-1 v -4 c 1,-2 4,-1 7,-1 z m -253,19 -21,3 -1,-3 -2,-10 -3,-7 c 0,-2 3,-1 4,-2 8,0 16,0 24,2 l 1,2 z"
     id="path13" />
  <path
     d="m 621,249.48444 -1,-2 c 1,-1 2,-3 4,-3 l 4,1 8,5 2,5 c 0,3 -1,6 -3,7 l -6,1 -5,-4 c -2,-3 -2,-6 -3,-10 z"
     id="path14" />
  <path
     fill="#e4c9b5"
     d="m 711,248.48444 v 17 c -1,3 -3,3 -5,3 h -14 l -13,2 -8,2 v -2 l -5,-26 h 6 c 10,0 20,0 29,2 z"
     id="path15" />
  <path
     d="m 606,249.48444 c 4,2 6,6 7,10 v 10 c 0,2 -2,3 -3,4 -4,2 -8,2 -11,0 -3,-2 -4,-5 -5,-8 v -6 c 0,-4 1,-8 3,-11 1,-1 3,-3 4,-2 2,0 3,2 5,3 z m -28,32 c -3,1 -7,0 -9,-2 -3,-3 -4,-8 -5,-12 -1,-6 0,-13 3,-18 1,-2 3,-2 4,-2 l 6,6 c 4,5 7,11 8,17 0,3 -1,7 -4,9 z m -97,-12 18,7 5,7 c 0,3 -2,6 -5,8 -5,3 -11,4 -17,1 l -14,-7 c -4,-2 -6,-6 -7,-11 0,-2 3,-3 4,-4 5,-3 11,-2 16,-1 z m -110,8 c 5,0 13,-4 22,-5 l 4,1 c 4,4 3,10 0,14 -8,6 -21,9 -30,6 q -5,-2 -6,-7 c -2,-6 4,-8 10,-9 z"
     id="path16" />
  <path
     fill="#765e4b"
     d="m 48,379.48444 c 7,-11 40,-6 56,-10 27,-2 53,10 80,13 34,10 71,9 107,6 35,-4 71,-2 106,-8 38,-2 75,6 112,5 36,1 70,-12 106,-17 30,-1 61,-7 90,2 -20,0 -39,-1 -58,5 -35,4 -67,17 -102,18 -24,1 -48,-7 -72,-4 -36,-1 -71,7 -106,8 -48,-3 -96,-1 -144,3 -21,-5 -43,-7 -64,-11 -24,-7 -48,-13 -74,-10 z"
     id="path17" />
  <path
     fill="#bc9678"
     d="m 707,370.48444 h 2 v 1 h -2 z"
     id="path18" />
</svg>
