<svg xmlns="http://www.w3.org/2000/svg" viewBox="0 0 1080 1080"><path fill="#3f3f3f" d="M186 721c-40-4-80-23-121-11-49-10-19-75-22-111-4-41-13-82-9-124 2-28-11-85 37-71l163-1c35-5 71-9 106-5 45-9 90-17 136-13 46 2 91 8 136-2 71-11 143 9 213-3 55-4 108-19 162-25 41-7 60 27 46 62 3 47 0 93 1 139 0 44 2 88-2 131-8 32-61 2-88 13-53 2-107 5-161 5-66-17-135-5-201 11-45 12-91-5-137 2-48 6-95 8-143 6-39 1-78 7-116-3zm805-347c14 5 54-2 20-11-50-10-98 14-147 17-54 7-109 14-163 5-43 0-89-2-131 11 37 17 82 4 122 3 57-5 114 10 170-3 43-10 86-17 129-22zm-452 22c-45-7-92-5-138-3-41 11-83 11-126 10-42 9-84 4-126 6-34 11-93-21-108 21 0 43-5 87 4 130 10 40-3 80 0 120 16 28 61-9 90 7 48 11 98 24 148 17 68-4 137-13 205-3 63 4 122-25 185-20 56 4 111 28 168 16 52 1 103-4 154-4 54 17 27-62 33-91 1-42-3-84 1-126-7-31 5-69-5-97-42 0-84 7-125 15-53 13-108 17-162 10-49-3-98 11-146 4-18-3-34-9-52-12zM48 701c44-2 89 1 131 14 53 12 107-1 160 3 61 4 121-14 183-5s121-27 183-21c-60-15-120 7-180 15-57 3-114-11-171-1-63 2-127 15-188-6-36-8-90-15-118 1zm659-9c-2 2 4 0 0 0z"/><path fill="#bc9678" d="m991 374-86 13c-23 8-47 7-70 15-19 0-39-2-58 0-20 0-40-6-61-4-19 0-39 5-58 4-24 0-49 6-73 0-8 0-28-8-9-9 27-4 54-9 82-8 27 1 55-2 82 5 27 1 53-3 79-4 29-5 60-6 89-12 14-3 29-8 44-10 21-2 44-9 64 0 9 0 19 14 4 11-10 0-19-2-29-1z"/><path d="M533 396c34 3 68 22 104 13 43 0 86-11 129-2 34 0 68 2 101-6 40-9 81-17 122-21 21 0 55-9 39 26-4 38 6 75-2 113 5 42 0 84 3 126-3 25 5 69-34 48-51 0-102 5-154 4-34 5-69 4-103-6-36-7-72-14-109-8-47 2-91 23-138 17-45-2-90-7-134 0-61 0-122 14-181-4-33-8-66-16-100-9-23 8-39 4-31-24-4-35 14-71-2-104-5-35-2-71-3-106 1-24-4-52 31-43 38-2 75 2 113-2 51 8 102-13 153-3 32-3 64-17 98-14 32 2 66-3 98 5z"/><path fill="#e4c9b5" d="M533 396c34 3 68 22 104 13 43 0 86-11 129-2 34 0 68 2 101-6 40-9 81-17 122-21 21 0 55-9 39 26-4 38 6 75-2 113 5 42 0 84 3 126-3 25 5 69-34 48-51 0-102 5-154 4-34 5-69 4-103-6-36-7-72-14-109-8-47 2-91 23-138 17-45-2-90-7-134 0-61 0-122 14-181-4-33-8-66-16-100-9-23 8-39 4-31-24-4-35 14-71-2-104-5-35-2-71-3-106 1-24-4-52 31-43 38-2 75 2 113-2 51 8 102-13 153-3 32-3 64-17 98-14 32 2 66-3 98 5zm-344 63c-6-29-21-4-28 4-18-2-45 23-11 21 20-9 80 13 71-20-10-5-22-3-32-5zm181 31c-10 21 48 7 62 10 30 8 55-11 46-41-29-18-66-11-98-5-22 2-21 22-10 36zm486-12c27 18 56 53 91 41 19-24-43-23-54-43-19-11-43-44-56-6-14 22-44 36-63 42 5 39 56 5 68-15 6-6 9-13 14-19zm-180 3c-3 21-63 48-24 55 43-1 15-77 58-57 6 21-16 29-25 32 31 46 68-33 36-54-18-11-90-7-71 22 8 3 20-1 26 2zm-88 39c-26 19-9 49 21 35 31-3 20-33 12-47 20-40-21-29-29-4-1-8 33-64-2-43-14 16-40 55-2 59zm-307-25c-20 25 26 63-15 73 29 28 60-26 27-43 38-38-18-76-53-46-12 19 32 15 41 16zm-84 13c30 3-1-41-4-5zm-37 4c26-21-33-31-7-1l7 1zm235 72c28 8 83 10 85-31 22-46-29-55-63-48-32 0-67 19-45 54 1 13 9 25 23 25zm-152-66c-4 27-8 88 8 99 13-30 16-67 5-99-2-7-10-6-13 0zm-78 17c18-3 74 7 61-18-33-6-71-6-100 12 0 20 28 5 39 6zm730 78c14-28 16-83-10-98-11 27-11 77 7 100zm-90-26c-22-13 5 36 21 11 24-13 28-76 6-78-13 21-6 52-27 67zm-145-32c-23-8-18 64 5 56 30 7 79 8 67-38 2-34-53-36-72-18zm-498-5c-40 8-2 72 32 50 36 0 30-69-10-54-7 0-15 1-22 4zm459 21c12 42 30-17 0 0zm-15 0c-30-8 4 51 7 12 0-5-3-10-7-12zm-37-2c-24 22 24 53 14 15-3-6-7-13-14-15zm-66 34c-9-22-65-12-28 8 8 6 30 8 28-8zm-132-4c-38 22 53 19 22-5l-22 5z"/><path d="M190 459c11 1 22 1 32 5 4 3 3 10 0 13-5 5-12 6-19 6-12-1-25-2-37 0l-23 1c-4 0-9-2-11-6 0-5 5-7 8-9l24-6c5 0 3-6 4-9 0-4 3-7 6-9 4-2 8 1 11 3 3 3 4 7 5 11zm180 30c-4-6-9-13-8-21 0-7 7-11 13-13a213 213 0 0 1 89-4c6 2 13 5 16 11 3 5-1 10-3 14-2 6-3 11-3 17-2 6-8 6-13 6l-84 2c-4-1-9-3-12-6 1-2 4-3 5-6zm76-9 1-9c-2-4-8-2-13-2-14 0-28-1-43 1-4 0-1 3 0 4l5 9h13l32-3h5zm410-2-12 17c-12 14-27 28-45 34-6 1-14 2-20-2s-6-12-4-18c2-7 10 3 15-2 17-8 32-20 44-34 6-5 9-12 13-18s14-7 18 0c9 10 21 16 31 23 15 11 32 20 50 25 9 1 10 12 2 15-5 4-11 6-17 5-14-2-25-11-37-17-12-7-23-16-34-25l-4-3zm-180 3c-2-2-8-1-12-1-5 0-11 1-16-3-4-3-5-9-3-13 7-5 16-7 24-9 15-4 31-5 46-1 7 2 14 9 16 16 1 11 1 21-1 32s-11 22-22 24c-7 2-13-4-17-8-2-3-9-8-5-11 5 0 10 3 14 0 7-4 8-12 10-19 0-4 1-8-1-10-5-4-12-2-18-1-4 0-8 1-5 5 3 6 0 12-2 18-5 14-13 28-27 35-6 2-15 3-19-3-3-3-3-9 1-11 8-4 15-9 20-16l16-21 1-3zm-88 39c-3-3-9-1-13-4-5-1-8-6-7-11-1-10 5-19 10-28 5-7 10-15 17-21 3-3 8-1 11 2 3 5 1 10-1 14-3 9-9 16-13 23-1 3-5 8 0 9 3 0 6-1 6-4 3-7 6-15 12-20s15-1 16 5c2 7-1 13-4 19-1 3-5 8-1 11 7 3 9 11 10 18s-3 14-9 17c-10 6-22 8-33 7-6-1-13-2-15-8-2-5 0-10 3-14l10-13 1-2zm24 4-14 18h13c3-1 11-2 9-7-1-4-5-8-8-11z"/><path fill="#e4c9b5" d="m447 471-1 9h-7l-16 1-24 2c-1 1-3 0-4-1l-6-11c1-2 4-1 6-2h51l1 1z"/><path d="M280 494c-12 0-25 2-36-3-4-2-9-7-5-11s10-5 16-7c11-3 23-6 34-3 6 3 11 8 14 14 4 7 3 16 0 23l-10 19c6 4 12 10 13 17 3 10 1 23-9 29-8 5-19 4-28-1-5-2-1-7 3-7 5-1 12-4 13-10 2-9-4-16-7-24-2-4-5-10-3-15l6-20v-1z"/><ellipse rx="10.6" ry="9" transform="rotate(116 -56 313)"/><ellipse rx="11.9" ry="10" transform="rotate(71 -276 361)"/><path d="M389 583c-8-1-13-9-15-17l-8-34c-2-4 0-10 4-13 9-6 20-9 31-12 19-3 38-4 57-2 9 1 18 4 24 10 5 5 2 11 1 17l-4 30c-2 10-11 18-20 22-14 4-28 4-41 4-6 0-11 1-16-1-4-2-8-4-13-4zm73-56c-1-2 0-6-4-7-18-1-37 0-55 3-6 1-11 1-16 3-2 5 4 11 9 8a469 469 0 0 1 66-7zm-65 18c-4 1-1 6 0 8l16-2 43-1c6 0 5-8-1-6l-58 1zm50 18-46 3c-4 4 0 8 5 6 15-4 31-3 47-5 4 1 7-6 1-5l-7 1zm-204-45c2-3 7-7 10-3 7 7 8 18 9 27 1 17 0 35-3 52-2 9-5 17-9 25-2 5-5 0-5-3l-4-27-1-21c1-12 0-24-1-36 0-5 0-10 4-14zm-77 18-29 4c-4-1-10-4-11-8s4-7 7-8a154 154 0 0 1 62-10c12 1 23 0 33 4 5 1 2 7 1 10-5 6-14 6-21 6-14 1-28 0-43 2zm729 77c-2 4-7 2-9-2-4-7-5-16-5-24-2-20-2-41-2-61 0-5 3-9 7-12 4-1 8 2 10 6 3 5 3 11 5 16 2 17 4 34 3 51-1 9-4 18-9 26zm-90-26c6-2 8-8 11-13l8-29c2-10 4-21 10-29 4 1 6 6 8 9 4 12 4 24 4 36-1 12-7 23-14 32-4 4-9 8-15 10s-13 0-18-5c-3-4-4-11 0-16 2 1 3 6 6 5z"/><path fill="#e4c9b5" d="M462 527c-1 4-6 2-8 2-21 1-42 2-62 5-3 0-4-3-5-5-2-4 3-4 6-4l23-4c14-2 28-2 42-1 3 0 3 3 3 5l1 2zm150-3 2 2c2 2 5 5 6 9v3c-2 3-6 4-10 4h-12l1-1 13-17z"/><path d="M661 555c6-5 13-10 21-11h19c6 1 10 5 15 5 4-1 9 1 11 5 5 7 5 15 5 23 1 7 0 15-1 22-2 6-6 11-11 15l-13-1-35-1c-3-1-8-3-11 1-4 1-7-4-9-7-6-12-7-26-6-39 1-6 3-11 7-15 3 0 5 3 8 3zm50 15c-9-3-19-4-29-4h-15l1 12 3 16c6-1 11-4 18-4h19c4-1 2-7 3-11v-9z"/><path fill="#e4c9b5" d="m397 545 42-1 21 1c1 1 0 4-2 5h-13c-16 0-31 1-46 3-2 1-3-1-3-3-1-1-2-3-1-4l2-1z"/><path d="M162 550c14-4 28-6 42-3 7 2 14 8 15 16 0 7-3 14-4 20l-7 14c-3 3-8 2-12 3l-34 1c-5-2-8-7-11-12-4-9-7-19-6-29 1-5 5-10 11-10h6zm32 32 2-14c1-5-5-4-8-4h-20c-2 3 2 6 3 10l2 11 21-3z"/><path fill="#e4c9b5" d="m447 563 9-1c3 2 1 5-1 5l-12 1c-13 0-25 1-37 4-2 0-5 1-6-1v-4c1-2 4-1 7-1l40-3zm-253 19-21 3-1-3-2-10-3-7c0-2 3-1 4-2 8 0 16 0 24 2l1 2-2 15z"/><path d="m621 571-1-2c1-1 2-3 4-3l4 1 8 5 2 5c0 3-1 6-3 7l-6 1-5-4c-2-3-2-6-3-10z"/><path fill="#e4c9b5" d="M711 570v17c-1 3-3 3-5 3h-14l-13 2-8 2v-2l-5-26h6c10 0 20 0 29 2l10 2z"/><path d="M606 571c4 2 6 6 7 10v10c0 2-2 3-3 4-4 2-8 2-11 0s-4-5-5-8v-6c0-4 1-8 3-11 1-1 3-3 4-2 2 0 3 2 5 3zm-28 32c-3 1-7 0-9-2-3-3-4-8-5-12-1-6 0-13 3-18 1-2 3-2 4-2l6 6c4 5 7 11 8 17 0 3-1 7-4 9l-3 2zm-97-12 18 7 5 7c0 3-2 6-5 8-5 3-11 4-17 1l-14-7c-4-2-6-6-7-11 0-2 3-3 4-4 5-3 11-2 16-1zm-110 8c5 0 13-4 22-5l4 1c4 4 3 10 0 14-8 6-21 9-30 6q-5-2-6-7c-2-6 4-8 10-9z"/><path fill="#765e4b" d="M48 701c7-11 40-6 56-10 27-2 53 10 80 13 34 10 71 9 107 6 35-4 71-2 106-8 38-2 75 6 112 5 36 1 70-12 106-17 30-1 61-7 90 2-20 0-39-1-58 5-35 4-67 17-102 18-24 1-48-7-72-4-36-1-71 7-106 8-48-3-96-1-144 3-21-5-43-7-64-11-24-7-48-13-74-10H48z"/><path fill="#bc9678" d="M707 692h2v1h-2v-1z"/></svg>