<svg xmlns="http://www.w3.org/2000/svg" viewBox="80 405 1000 270"><path fill="#7ed957" d="M997 628c-143-8-286-4-428 8-126 9-253 7-378-9-26-14 33-36 17-62-9-20-35-28-23-54-26-19 8-53-25-69-25-21 2-31 22-23 259 23 520 13 779-2-28 25 26 45 20 72-22 18-11 39-2 60-23 20-6 39 13 52 3 9 5 18 5 27z"/><path d="M623 457v24c0 2-2 3-3 4-2 1-3-1-4-1-2-2-4-4-4-6l-1-17-1-10 2-1 2-2 3 1 4 2 2 3v3zm142 46 6 1c2 0 5-1 7 1h15c3-1 6-1 9 1l5 3c-5 5-11 4-16 4-4 2-5 7-4 11 6 2 12 0 18-1 2 2 4 3 4 5-2 4 0 6 2 9 0 6-4 11-7 17l-14 17c-2 3-6 9 0 8 5 2 11-5 15 0 3 6-7 6-11 8l-13 1h-10c-5-2-11 1-16-2-3-2-9-2-10-6 0-3 3-2 5-3l12 3c4 0 11 1 10-5 1-7-6-6-10-8-5-3-5-10-8-14l-8-15 6-1 21 25 3-18c1-5 0-10-7-10-6-2-12 0-18-1l-14-7-2-7 36-46c1-2-1-7 4-6 5 0 11 0 14 5s5 10 10 13c6 5 13 9 18 15 2 7-8 5-11 1l-22-18c-6-1-9 5-12 8l-7 12zm-14 20c4 2 9 4 14 4 4 0 10 1 10-4l2-6-5-5-13-2-8 13zm34 38 6-9c4-5 8-11 8-18l-8-1c-4 2-5 8-5 13l-1 15z"/><path d="M858 568c-2 5-1 11-1 17-2 2-1 5-1 8s-1 7-5 7c-7 0-8-9-7-14 3-8-6-5-10-4s-9 2-12-1c-2-2-5-3-4-6 5-2 12-2 17-1 4-2 10-3 13-6l1-9c-4-3-9-1-14-1-5-1-10 2-14-2-2-1-5-6 0-6l28-1 4-12c0-4 3-9 0-11-2 0-4-2-6-1-6 0-12 2-18 1-4 0-8 3-11-1-2-2-7-5-1-7h14l7-1h14l4-4v-7h-17c-6 1-11 0-13-6-4-5 6-2 9-3l25 1c5-3 4-10 4-15-1-4-5-5-8-4-5 1-11-2-16 1-6 0-12 5-17 2l-5-5c3-3 8-4 12-5 8-2 17-2 25-2l21 6c2 6 0 12-1 17 0 4 3 8 1 11l-3 8 8 3c2-1 4-3 6-2l8 4c0 4-8 7-13 5-5 1-11 0-15 3-2 8-4 16-4 24 0 7 8 0 11-2 6-5 15-9 23-11 1 1 4 2 4 4l-16 11c-4 4-11 7-13 12 0 2 0 5 3 6 7 5 15 9 23 11 4 4-1 6-5 6-6 1-11-4-16-6l-18-12zm-408-93c3 0 5 2 8 4 2 1 0 3-1 4l-37 58-3-2-5-4c-1-3 1-6 3-8l30-51 5-1zm243 23c-3-2-7 0-11 1l-11 3-5-5c-4-3 1-5 4-6 9-3 19-6 28-5 3 1 7 2 7 5l2 8c-3 4-2 9-2 13-1 4 2 7 3 10-2 4-6 4-10 5l-17 3-3 15-2 25c1 3-1 6 2 8l5 5 7-1 26-11c4 0 9 6 6 9-10 6-21 11-32 13-5 0-10 0-14-3-6-4-10-10-11-17v-12l3-30-3-6 8-3 16-4c5-1 5-6 5-10v-9zm-189-5c1-2 4 0 6-1 2 0 4 1 6-1h9l14-1c3 0 5 2 8 3 2 1 1 3-1 4l-3 3c-6 1-12 3-18 2l-10 1-7 1h-12c-2 0-5 2-7 0l-6-6v-3l7-1 13-1zm-134 77c2-6 0-13 0-20 1-11-2-21-4-32l6-2c3 0 5 2 7 3 5 2 0 8 2 11 2 5 0 11 2 16l1 28c-3 5 4 12-2 15-3 3-6 0-8-2l-6-5c-6-1-12 1-18 2-10 2-21 5-31 4-6 2-13 1-19 2-5 2-9-1-14-1-6 1-14-1-18-6-3-5 0-9 2-14l10-35c2-2 5-2 6 0 4 1 4 5 4 9l-9 35 17 4c5-3 11 0 16-2 7 0 8-8 6-13-2-8-1-15-2-23l-2-36v-18c1-3 4-3 7-2 1 1 4 1 4 4 1 3 2 6 1 9l1 28 2 40c-1 7 7 8 13 7l26-6zm271-65c-5-1-9 1-14 1h-8l-13 1c-7 0-13 2-19 3l-3-2-4-2c-3-4 3-6 6-7l17-1 13-1h28l3 3 2 2c-1 2-4 3-6 3h-2zm-190 47-4 1-9 10-4-1c-2-1-3-1-3-3l-1-4c4-1 6-6 8-9l23-32c2-3 4-7 8-6 3 0 7 0 8 3v5l-11 12-1 13 1 9v25c2 3 1 7 1 10 1 4-2 7-5 7l-9-5c-1-3 1-5 1-8v-21c-1-2-1-5-3-6zm187-34 4 3c0 2-3 2-5 3l-34 6-3-2-4-3c-1-2 2-1 4-2 11-3 22-5 34-6l4 1zm-117 18c-5-1-10 1-15 1-7 1-13 3-20 3-3 0-4-3-5-5-1-4 5-3 7-4 19-4 39-8 59-10 3 0 8-2 11 0 1 2 3 3 3 5 1 3-3 4-5 5-5 2-11 1-16 2-4 2-5 7-4 12 0 4 2 7 1 11v20c-2 6-2 12-2 19-2 3-3 10-8 7-4-1-7-4-8-8s3-7 3-11c3-9 2-18 2-28 0-4 2-8 0-12-1-2-1-5-3-7zm81 4 19-1 18-3 1 2 1 3-4 3c-8 3-18 5-27 5l-4-2-4-3v-4zm9 48v12c-2 1-5 4-6 1-2-2-6-4-6-7-1-3 1-6 1-9l1-13c-1-2-2-3-1-5 0-2-1-5 2-6 3-2 6-3 10-3 6 0 13 0 20 2 4 1 9 4 12 7l5 12-2 6c-1 3-3 4-6 4l-14 3c-4 0-8 0-12-2l-4-2zm25-14-4-5-9-3-9 2c-3 0-3 3-3 5v7c2 2 5 2 7 3h8l8-2c2-2 1-5 2-7z"/></svg>