<svg xmlns="http://www.w3.org/2000/svg" viewBox="0 0 1080 1080"><path fill="#3f3f3e" d="M55 574c-1-45-3-89-3-134 24 3 57 8 85 2 89-8 177-12 266-18 79-2 157-19 235-8 60 7 120 1 179-4 55-5 111 4 166 3 29-12 47-1 39 31-5 51 2 103 0 155 3 34 6 69 3 103-20 23-61 5-89 11-38-1-75-6-113-5-33 0-66 1-99-4-38 1-77 5-114-6-65-7-132-12-197 1-69 10-140-2-208 14-41 7-83-1-124 5-42 13-15-49-24-72l-2-74zm22 134c37-1 72-7 108-15 42-1 82-16 125-13 50-7 101-11 151-8 38 0 76-8 114-1 36 0 70 8 105 11 49 5 97-4 146 4 43 0 85 17 129 14 22-9 78 22 67-20 0-48-6-95-4-143-6-41 3-82-1-122-35 6-69 4-104 1-55-4-110-1-165 5-79 9-159-13-238-1-67 8-134 8-202 14-68 3-137 8-205 15-18-2-57-14-47 17l7 241c3 4 10-2 14 1zm31 7c34 0 68 3 101-4 61-14 124-2 186-11 37-2 73-13 110-10 47 2 94 3 139 15 39 4 79-7 117 3h117c39 6 78 6 117 3 13 9 38-10 9-7-48-2-96 1-142-12-49-5-98-8-147-5-38 1-76-10-114-11-42-5-85-7-127-1-55-3-110 0-165 9-45-3-89 13-134 14-36 10-74 13-112 13-13 19 40 0 45 4z"/><path d="M77 708c-23 7-12-21-15-33l-7-228c33-3 65 6 98-2 77-8 155-10 232-17 84 0 167-20 250-8 55 5 109 3 163-4 60-6 121 1 181 3 20-4 50-12 39 21-4 40 0 80 0 120-2 47 7 95 3 141-52-3-105 3-155-12-49-5-98-9-146-5-36 0-71-6-106-11-45-2-91-10-136-1-42-1-83-3-125 3-34 5-69 5-104 9-31 10-64 5-95 16-25 4-51 8-77 8z"/><path fill="#e4c9b5" d="M77 708c-23 7-12-21-15-33l-7-228c33-3 65 6 98-2 77-8 155-10 232-17 84 0 167-20 250-8 55 5 109 3 163-4 60-6 121 1 181 3 20-4 50-12 39 21-4 40 0 80 0 120-2 47 7 95 3 141-52-3-105 3-155-12-49-5-98-9-146-5-36 0-71-6-106-11-45-2-91-10-136-1-42-1-83-3-125 3-34 5-69 5-104 9-31 10-64 5-95 16-25 4-51 8-77 8zm90-177c23 11 42-26 9-19-18 10-17-53-34-22 1 28 15 69-25 73-31 28 39 68 42 19-2-25 47 11 34-21-16-9-36-8-26-30zm594-34c4-27-58 9-12 5l7-1zm-302 43c-7-27 24-21 31-37-10-12-27 1-34-15 4 24-65 17-29 32 25-10 18 12 18 26-36 4-48 70-2 61 34 1 32-40 45-57 38 8 10 59-18 60 35 19 69-41 39-64-16-9-36-14-50-6zm320-6c-20 9-31-10-9-15 1-22-42-2-46-20 1 15-30 48 0 39 3-21 32-24 26 0-22 3-20 33-7 49 9 4 57 11 47-6-14 0-65-4-23-6 19-8 39 23 36-13 16-28-31-21-8-42 20-9 18 37 23 3 21 1 23-24-2-16-14 12-39-13-12-4 36-4-3-26-14-6-10-3-12 30-11 37zm-160 0c34-21 23-53-16-42-36-1-8 26 12 18-9 22-52 38-44 61 22-13 77-44 81 1-13 36-23-30-49-1-31 38 42 48 60 20 27-32-10-70-44-57zm281-26c-6 15-37-9-28 20 5 23-14 69 9 76 11-23-12-64 26-62 25-28-2-67-35-42-15 16 23 5 28 8zm-600 45c12-11 19-67 3-53-15 29-40 68 2 87 7 21 47 27 28-2-8-13-24-20-33-32zm671-15c0 21 6 53-14 60 37 28 32-47 28-70 13-46-61-44-50 0-1 21 25 10 36 10zm-53 46c35 17 48-49 6-37-26-5-25 34-6 37zm-128 22c16 20 38-11 8-12-9-4-18 6-8 12zm-33-12c-19-5-34 22-8 16 6-3 8-10 8-16z"/><path d="M167 531c-2 0-1 4-1 5l-1 14c9 3 17 4 25 8 5 2 7 8 5 13-1 6-8 6-13 4l-18-4c-5 3-3 11-6 16-3 8-9 18-18 19-8 1-17-3-22-10s-11-15-9-24c2-6 8-9 13-13l20-7c3-5 2-12 2-17 0-14 0-29-2-43-1-4-1-11 5-11 7 0 13 5 14 11 2 7 4 14 4 21 8-1 17-3 25-1 7 2 7 12 1 15-7 5-16 5-24 4zm-39 56c6 3 10-4 11-8s5-12-2-11c-6 1-15 1-18 8 0 5 5 8 9 11zm633-90c-3 3-8 5-13 5-4 1-9 0-13-1-2-1-4-3-4-5l3-3c7-3 14-6 22-6 2 0 5 1 6 3s0 5-1 7zm-302 44c6 0 11-2 14-7 5 1 9 6 16 5 8 0 17 3 23 10 11 11 11 30 3 44-7 10-16 19-29 21-5 0-12-1-15-5 15-3 30-14 35-30 2-7 1-17-4-23-4-4-13-8-18-5-2 8-3 17-6 24-2 6-4 12-9 17 0 5-3 10-8 10-7-1-12 5-19 5-10 2-22-1-28-10-3-8-2-17 1-24 4-13 16-20 28-25 3-1 1-5 2-7l1-21c-5-2-13 1-20 0-5 1-16-7-8-11l32-7c3-4 1-14 8-14s4 13 11 11c6-1 12-5 17-1 6 3 6 13-2 14-7 3-14 4-22 6l-1 7-2 16zm1 13v16c3-5 5-11 5-17l-5 2zm-15 7c-6 2-12 7-15 12-2 6-4 13 1 17s14 2 17-4l-3-17v-8z"/><path d="M779 534c-3-3-2-9 0-13 3-7 2-15 5-22 0-6 8 1 8-5 5-5 12-4 18-4 5-2 12 0 9 7-4 6-11 6-17 6-4 1-9-3-10-2l3 8 18-2 22 1c5 7-4 13-10 14-4 0-8-1-7 4 2 6-4 16-8 7-4-4 2-12-5-13-5-1-11-3-11 5-1 4-6 7-6 10 5 0 12 1 15 7 3 7 0 16 0 24 0 5 0 11-4 15-7 5-7-10-15-6h-26c-4-1-8-2-8 2-2 6 8 2 11 3h27c5 1 9 8 2 9-11 4-22 2-32 1-5-1-11-1-16-4-4-5-7-11-7-18v-23c2-7 9-1 12-4 3-2 5-4 2-7-4-4 4-15-5-12-4 1-12-4-12 3-2 6-6 12-12 15-4 2-14-2-10-7 3-3 7-7 8-12 2-7 2-16 6-23 6-3 8 7 9 11 5 1 11-1 16-1 7 1 15-1 21 2 5 4 1 12-5 12-5 0-7 2-7 7 0 3-3 8 2 6l19-1zm7 20c3 1 7 4 5-2 0-5-7-2-11-3l-31 1c-2 1 0 4 0 6 5 0 11-3 17-2 6-1 13-2 20 0zm2 6c-9 3-19 2-28 2-3 1-11-3-10 2 0 3 2 5 5 3 12-2 23-1 35-1 0-2 2-10-2-6zm-169-26c0 3 7-1 10-1 13-3 28 1 36 13 7 10 8 24 4 35-5 14-20 22-34 24-11 2-23 4-33-3-10-6-10-22-2-29 8-8 21-10 31-4 5 3 7 10 8 16 5 1 10-7 12-11 3-8 1-18-7-22-10-5-21-4-31-2s-17 7-24 13c-6 3-10 8-17 8-6-1-6-9-2-13 6-8 15-14 22-21 8-9 16-17 23-27l-13-1c-6 1-15 1-18-6-3-6 4-10 9-10 13-2 26-2 39-1 5 1 11 4 11 10-2 8-9 14-14 20l-10 12zm-3 56c8 3 7-7 2-9-6-4-12 7-4 9h2zm283-82c-8-1-16 0-24 1-3 0-9-4-5-7 8-7 20-9 31-8 5 0 10 0 13 5 2 5 1 9 1 14l-1 19-8 10c-3 4-9 4-13 4-3 1-9-2-8 3l-1 49c0 5-4 9-9 7-5 0-5-6-5-10l2-77c0-5 3-9 7-7 3 1 5 4 9 3l11-2c2-1 2-4 0-4zm0 17h-12c-2 1-1 3-1 5-1 2 0 6 3 4l10-2 1-7h-1zm-599 29 12 11c10 8 19 16 25 27 3 5 2 13-5 15-5 2-10-3-14-7l-21-19c-6-5-12-10-16-17-3-6-2-14 1-20 7-15 15-28 21-44-1-4 3-9 6-4 4 7 4 15 4 23-1 12-9 23-13 34zm670-17c-9 2-17 5-26 4-5 0-9-5-9-10 0-8-1-18 3-26 3-5 7-9 12-10 7-2 15-1 22-1 6 1 10 7 11 13l4 42c0 14 1 28-1 42-3 8-9 16-18 16-6 0-13-6-11-12 3-3 11 1 12-6 3-9 2-19 2-28v-23l-1-1zm-22-24c3 1 7-2 11-1 3-2 7 2 9 1 0-2 1-5-1-5h-20l1 4v1zm19 9c-6 3-12 1-18 3-3 2 0 5 3 4l16-3c1-1 1-5-1-4z"/><path fill="#e4c9b5" d="m948 513-1-5h1l20 1v4h-2c-4-2-8-2-12-1l-5 1h-1zm19 9 2 1-1 2-2 1-17 3-1-1 1-3 3-1h10l5-2zm-68 3 1 1v5l-2 1-11 3-1-1v-8l1-1h12z"/><path d="M918 584c-2 0-5 1-6-1-6-7-9-17-7-27 0-2 1-4 3-4 9-3 18-6 27-5 6 0 11 2 15 6l1 7c0 6-1 13-4 18-1 4-5 5-8 6h-21zm16-24-15 1v2c0 3 0 6 2 7h12c2-1 2-4 2-7v-3h-1z"/><path fill="#e4c9b5" d="m786 554-10-1-21 2-5 2-1-2-1-4c1-2 3-1 5-2h28l9 1c2 1 1 4 1 6l-4-2h-1zm-326 1 5-2v2l-4 14h-1v-15zm328 5c1-1 3-2 3 1l-1 5h-4a168 168 0 0 0-34 2l-1-2-1-4h4a476 476 0 0 0 34-2zm146 0 1 1v7l-2 2-12 1c-2-1-2-4-2-5v-5h1l14-1zm-489 1c0 8 1 16 3 23 0 3-2 5-4 6-2 2-6 3-9 2l-6-3-1-9c1-5 3-9 6-12l10-7h1zm-319 24c-3-1-5-4-6-6v-6l5-2c5-2 9-3 14-3l2 2-4 14-4 3h-4l-3-2zm490 5-4-1-2-4 2-3 5-2 4 5 1 4c0 1-1 2-3 1h-3z"/><path d="M790 606c-2-2-4-4-4-7-1-2 1-4 3-5h11l10 4c3 2 4 4 4 7s-2 6-5 7c-5 1-10 0-14-2l-5-4zm-33-12q0 10-8 16c-6 4-15 1-16-7q0-2 2-3c6-3 15-5 21-6v-1l1 1z"/><path fill="#bc9678" d="m108 715-8 1-15 1-18 3h-4q-2 0-2-2v-4a2 2 0 0 1 2-3h15l15-1 20-1 7-1 11-1q11-3 18-3l11-2q15-5 30-6h8l10-1 23-4 16-3 15-2 17-1c10-2 19-1 30-1l17-3 13-2 47-4 36-1 9 1h37q11 1 21-1l28-3h23l4 1h16l16 2 18 2h23l8 1q7 0 15 3l23 4 11 1h11l12 1h8l10 1h18l7-1h41l33 2 12 1 13 1h7q15 1 33 5l23 5 20 2 19 1h41l15 1 13 1h7q2 0 1 2l-2 4-3 2-18-2-16 1h-6l-8 1h-31l-8-1h-9l-11-1h-16l-7-2-9-1h-43l-9-1h-33l-7 1-15 1-6-1-19-3-7-2-25 1h-9l-14 1-5 1h-22l-9-1-12-1-18-5q-8-2-17-2l-24-2-24-3h-17l-8-1h-13l-13-1-33 1h-11l-13 2-9 1-12 3-14 2-12 1h-12l-32 3-7 1h-56l-23-1-17 2-5 1h-7c-16 0-29 4-44 8q-6 2-11 1h-28l-12 1-10-1h-29z"/></svg>