<?xml version="1.0" encoding="UTF-8" standalone="no"?>
<svg
   viewBox="0 0 1081.4615 382.89578"
   version="1.1"
   id="svg10"
   sodipodi:docname="Qa.svg"
   width="1081.4614"
   height="382.89578"
   inkscape:version="1.3.2 (091e20e, 2023-11-25, custom)"
   xmlns:inkscape="http://www.inkscape.org/namespaces/inkscape"
   xmlns:sodipodi="http://sodipodi.sourceforge.net/DTD/sodipodi-0.dtd"
   xmlns="http://www.w3.org/2000/svg"
   xmlns:svg="http://www.w3.org/2000/svg">
  <defs
     id="defs10" />
  <sodipodi:namedview
     id="namedview10"
     pagecolor="#ffffff"
     bordercolor="#000000"
     borderopacity="0.25"
     inkscape:showpageshadow="2"
     inkscape:pageopacity="0.0"
     inkscape:pagecheckerboard="0"
     inkscape:deskcolor="#d1d1d1"
     inkscape:zoom="0.68425926"
     inkscape:cx="540"
     inkscape:cy="162.21922"
     inkscape:window-width="1920"
     inkscape:window-height="974"
     inkscape:window-x="-11"
     inkscape:window-y="-11"
     inkscape:window-maximized="1"
     inkscape:current-layer="svg10">
    <inkscape:page
       x="0"
       y="0"
       width="1081.4615"
       height="382.89578"
       id="page10"
       margin="375.58862 0 322.97699"
       bleed="0" />
  </sodipodi:namedview>
  <path
     fill="#3f3f3e"
     d="m 55,196.94992 c -1,-45 -3,-89 -3,-134 24,3 57,8 85,2 89,-8 177,-12 266,-18 79,-2 157,-19 235,-8 60,7 120,1 179,-4 55,-5 111,4 166,3 29,-12 47,-1 39,31 -5,51 2,103 0,155 3,34 6,69 3,103 -20,23 -61,5 -89,11 -38,-1 -75,-6 -113,-5 -33,0 -66,1 -99,-4 -38,1 -77,5 -114,-6 -65,-7 -132,-12 -197,1 -69,10 -140,-2 -208,14 -41,7 -83,-1 -124,5 -42,13 -15,-49 -24,-72 z m 22,134 c 37,-1 72,-7 108,-15 42,-1 82,-16 125,-13 50,-7 101,-11 151,-8 38,0 76,-8 114,-1 36,0 70,8 105,11 49,5 97,-4 146,4 43,0 85,17 129,14 22,-9 78,22 67,-20 0,-48 -6,-95 -4,-143 -6,-41 3,-82 -1,-122 -35,6 -69,4 -104,1 -55,-4 -110,-1 -165,5 -79,9 -159,-13 -238,-1 -67,8 -134,8 -202,14 -68,3 -137,8 -205,15 -18,-2 -57,-14 -47,17 l 7,241 c 3,4 10,-2 14,1 z m 31,7 c 34,0 68,3 101,-4 61,-14 124,-2 186,-11 37,-2 73,-13 110,-10 47,2 94,3 139,15 39,4 79,-7 117,3 h 117 c 39,6 78,6 117,3 13,9 38,-10 9,-7 -48,-2 -96,1 -142,-12 -49,-5 -98,-8 -147,-5 -38,1 -76,-10 -114,-11 -42,-5 -85,-7 -127,-1 -55,-3 -110,0 -165,9 -45,-3 -89,13 -134,14 -36,10 -74,13 -112,13 -13,19 40,0 45,4 z"
     id="path1" />
  <path
     d="m 77,330.94992 c -23,7 -12,-21 -15,-33 l -7,-228 c 33,-3 65,6 98,-2 77,-8 155,-10 232,-17 84,0 167,-20 250,-8 55,5 109,3 163,-4 60,-6 121,1 181,3 20,-4 50,-12 39,21 -4,40 0,80 0,120 -2,47 7,95 3,141 -52,-3 -105,3 -155,-12 -49,-5 -98,-9 -146,-5 -36,0 -71,-6 -106,-11 -45,-2 -91,-10 -136,-1 -42,-1 -83,-3 -125,3 -34,5 -69,5 -104,9 -31,10 -64,5 -95,16 -25,4 -51,8 -77,8 z"
     id="path2" />
  <path
     fill="#e4c9b5"
     d="m 77,330.94992 c -23,7 -12,-21 -15,-33 l -7,-228 c 33,-3 65,6 98,-2 77,-8 155,-10 232,-17 84,0 167,-20 250,-8 55,5 109,3 163,-4 60,-6 121,1 181,3 20,-4 50,-12 39,21 -4,40 0,80 0,120 -2,47 7,95 3,141 -52,-3 -105,3 -155,-12 -49,-5 -98,-9 -146,-5 -36,0 -71,-6 -106,-11 -45,-2 -91,-10 -136,-1 -42,-1 -83,-3 -125,3 -34,5 -69,5 -104,9 -31,10 -64,5 -95,16 -25,4 -51,8 -77,8 z m 90,-177 c 23,11 42,-26 9,-19 -18,10 -17,-53 -34,-22 1,28 15,69 -25,73 -31,28 39,68 42,19 -2,-25 47,11 34,-21 -16,-9 -36,-8 -26,-30 z m 594,-34 c 4,-27 -58,9 -12,5 l 7,-1 z m -302,43 c -7,-27 24,-21 31,-37 -10,-12 -27,1 -34,-15 4,24 -65,17 -29,32 25,-10 18,12 18,26 -36,4 -48,70 -2,61 34,1 32,-40 45,-57 38,8 10,59 -18,60 35,19 69,-41 39,-64 -16,-9 -36,-14 -50,-6 z m 320,-6 c -20,9 -31,-10 -9,-15 1,-22 -42,-2 -46,-20 1,15 -30,48 0,39 3,-21 32,-24 26,0 -22,3 -20,33 -7,49 9,4 57,11 47,-6 -14,0 -65,-4 -23,-6 19,-8 39,23 36,-13 16,-28 -31,-21 -8,-42 20,-9 18,37 23,3 21,1 23,-24 -2,-16 -14,12 -39,-13 -12,-4 36,-4 -3,-26 -14,-6 -10,-3 -12,30 -11,37 z m -160,0 c 34,-21 23,-53 -16,-42 -36,-1 -8,26 12,18 -9,22 -52,38 -44,61 22,-13 77,-44 81,1 -13,36 -23,-30 -49,-1 -31,38 42,48 60,20 27,-32 -10,-70 -44,-57 z m 281,-26 c -6,15 -37,-9 -28,20 5,23 -14,69 9,76 11,-23 -12,-64 26,-62 25,-28 -2,-67 -35,-42 -15,16 23,5 28,8 z m -600,45 c 12,-11 19,-67 3,-53 -15,29 -40,68 2,87 7,21 47,27 28,-2 -8,-13 -24,-20 -33,-32 z m 671,-15 c 0,21 6,53 -14,60 37,28 32,-47 28,-70 13,-46 -61,-44 -50,0 -1,21 25,10 36,10 z m -53,46 c 35,17 48,-49 6,-37 -26,-5 -25,34 -6,37 z m -128,22 c 16,20 38,-11 8,-12 -9,-4 -18,6 -8,12 z m -33,-12 c -19,-5 -34,22 -8,16 6,-3 8,-10 8,-16 z"
     id="path3" />
  <path
     d="m 167,153.94992 c -2,0 -1,4 -1,5 l -1,14 c 9,3 17,4 25,8 5,2 7,8 5,13 -1,6 -8,6 -13,4 l -18,-4 c -5,3 -3,11 -6,16 -3,8 -9,18 -18,19 -8,1 -17,-3 -22,-10 -5,-7 -11,-15 -9,-24 2,-6 8,-9 13,-13 l 20,-7 c 3,-5 2,-12 2,-17 0,-14 0,-29 -2,-43 -1,-4 -1,-11 5,-11 7,0 13,5 14,11 2,7 4,14 4,21 8,-1 17,-3 25,-1 7,2 7,12 1,15 -7,5 -16,5 -24,4 z m -39,56 c 6,3 10,-4 11,-8 1,-4 5,-12 -2,-11 -6,1 -15,1 -18,8 0,5 5,8 9,11 z m 633,-90 c -3,3 -8,5 -13,5 -4,1 -9,0 -13,-1 -2,-1 -4,-3 -4,-5 l 3,-3 c 7,-3 14,-6 22,-6 2,0 5,1 6,3 1,2 0,5 -1,7 z m -302,44 c 6,0 11,-2 14,-7 5,1 9,6 16,5 8,0 17,3 23,10 11,11 11,30 3,44 -7,10 -16,19 -29,21 -5,0 -12,-1 -15,-5 15,-3 30,-14 35,-30 2,-7 1,-17 -4,-23 -4,-4 -13,-8 -18,-5 -2,8 -3,17 -6,24 -2,6 -4,12 -9,17 0,5 -3,10 -8,10 -7,-1 -12,5 -19,5 -10,2 -22,-1 -28,-10 -3,-8 -2,-17 1,-24 4,-13 16,-20 28,-25 3,-1 1,-5 2,-7 l 1,-21 c -5,-2 -13,1 -20,0 -5,1 -16,-7 -8,-11 l 32,-7 c 3,-4 1,-14 8,-14 7,0 4,13 11,11 6,-1 12,-5 17,-1 6,3 6,13 -2,14 -7,3 -14,4 -22,6 l -1,7 z m 1,13 v 16 c 3,-5 5,-11 5,-17 l -5,2 z m -15,7 c -6,2 -12,7 -15,12 -2,6 -4,13 1,17 5,4 14,2 17,-4 l -3,-17 z"
     id="path4" />
  <path
     d="m 779,156.94992 c -3,-3 -2,-9 0,-13 3,-7 2,-15 5,-22 0,-6 8,1 8,-5 5,-5 12,-4 18,-4 5,-2 12,0 9,7 -4,6 -11,6 -17,6 -4,1 -9,-3 -10,-2 l 3,8 18,-2 22,1 c 5,7 -4,13 -10,14 -4,0 -8,-1 -7,4 2,6 -4,16 -8,7 -4,-4 2,-12 -5,-13 -5,-1 -11,-3 -11,5 -1,4 -6,7 -6,10 5,0 12,1 15,7 3,7 0,16 0,24 0,5 0,11 -4,15 -7,5 -7,-10 -15,-6 h -26 c -4,-1 -8,-2 -8,2 -2,6 8,2 11,3 h 27 c 5,1 9,8 2,9 -11,4 -22,2 -32,1 -5,-1 -11,-1 -16,-4 -4,-5 -7,-11 -7,-18 v -23 c 2,-7 9,-1 12,-4 3,-2 5,-4 2,-7 -4,-4 4,-15 -5,-12 -4,1 -12,-4 -12,3 -2,6 -6,12 -12,15 -4,2 -14,-2 -10,-7 3,-3 7,-7 8,-12 2,-7 2,-16 6,-23 6,-3 8,7 9,11 5,1 11,-1 16,-1 7,1 15,-1 21,2 5,4 1,12 -5,12 -5,0 -7,2 -7,7 0,3 -3,8 2,6 z m 7,20 c 3,1 7,4 5,-2 0,-5 -7,-2 -11,-3 l -31,1 c -2,1 0,4 0,6 5,0 11,-3 17,-2 6,-1 13,-2 20,0 z m 2,6 c -9,3 -19,2 -28,2 -3,1 -11,-3 -10,2 0,3 2,5 5,3 12,-2 23,-1 35,-1 0,-2 2,-10 -2,-6 z m -169,-26 c 0,3 7,-1 10,-1 13,-3 28,1 36,13 7,10 8,24 4,35 -5,14 -20,22 -34,24 -11,2 -23,4 -33,-3 -10,-6 -10,-22 -2,-29 8,-8 21,-10 31,-4 5,3 7,10 8,16 5,1 10,-7 12,-11 3,-8 1,-18 -7,-22 -10,-5 -21,-4 -31,-2 -10,2 -17,7 -24,13 -6,3 -10,8 -17,8 -6,-1 -6,-9 -2,-13 6,-8 15,-14 22,-21 8,-9 16,-17 23,-27 l -13,-1 c -6,1 -15,1 -18,-6 -3,-6 4,-10 9,-10 13,-2 26,-2 39,-1 5,1 11,4 11,10 -2,8 -9,14 -14,20 z m -3,56 c 8,3 7,-7 2,-9 -6,-4 -12,7 -4,9 z m 283,-82 c -8,-1 -16,0 -24,1 -3,0 -9,-4 -5,-7 8,-7 20,-9 31,-8 5,0 10,0 13,5 2,5 1,9 1,14 l -1,19 -8,10 c -3,4 -9,4 -13,4 -3,1 -9,-2 -8,3 l -1,49 c 0,5 -4,9 -9,7 -5,0 -5,-6 -5,-10 l 2,-77 c 0,-5 3,-9 7,-7 3,1 5,4 9,3 l 11,-2 c 2,-1 2,-4 0,-4 z m 0,17 h -12 c -2,1 -1,3 -1,5 -1,2 0,6 3,4 l 10,-2 1,-7 z m -599,29 12,11 c 10,8 19,16 25,27 3,5 2,13 -5,15 -5,2 -10,-3 -14,-7 l -21,-19 c -6,-5 -12,-10 -16,-17 -3,-6 -2,-14 1,-20 7,-15 15,-28 21,-44 -1,-4 3,-9 6,-4 4,7 4,15 4,23 -1,12 -9,23 -13,34 z m 670,-17 c -9,2 -17,5 -26,4 -5,0 -9,-5 -9,-10 0,-8 -1,-18 3,-26 3,-5 7,-9 12,-10 7,-2 15,-1 22,-1 6,1 10,7 11,13 l 4,42 c 0,14 1,28 -1,42 -3,8 -9,16 -18,16 -6,0 -13,-6 -11,-12 3,-3 11,1 12,-6 3,-9 2,-19 2,-28 v -23 z m -22,-24 c 3,1 7,-2 11,-1 3,-2 7,2 9,1 0,-2 1,-5 -1,-5 h -20 l 1,4 z m 19,9 c -6,3 -12,1 -18,3 -3,2 0,5 3,4 l 16,-3 c 1,-1 1,-5 -1,-4 z"
     id="path5" />
  <path
     fill="#e4c9b5"
     d="m 948,135.94992 -1,-5 h 1 l 20,1 v 4 h -2 c -4,-2 -8,-2 -12,-1 l -5,1 z m 19,9 2,1 -1,2 -2,1 -17,3 -1,-1 1,-3 3,-1 h 10 z m -68,3 1,1 v 5 l -2,1 -11,3 -1,-1 v -8 l 1,-1 z"
     id="path6" />
  <path
     d="m 918,206.94992 c -2,0 -5,1 -6,-1 -6,-7 -9,-17 -7,-27 0,-2 1,-4 3,-4 9,-3 18,-6 27,-5 6,0 11,2 15,6 l 1,7 c 0,6 -1,13 -4,18 -1,4 -5,5 -8,6 z m 16,-24 -15,1 v 2 c 0,3 0,6 2,7 h 12 c 2,-1 2,-4 2,-7 v -3 z"
     id="path7" />
  <path
     fill="#e4c9b5"
     d="m 786,176.94992 -10,-1 -21,2 -5,2 -1,-2 -1,-4 c 1,-2 3,-1 5,-2 h 28 l 9,1 c 2,1 1,4 1,6 l -4,-2 z m -326,1 5,-2 v 2 l -4,14 h -1 v -15 z m 328,5 c 1,-1 3,-2 3,1 l -1,5 h -4 a 168,168 0 0 0 -34,2 l -1,-2 -1,-4 h 4 a 476,476 0 0 0 34,-2 z m 146,0 1,1 v 7 l -2,2 -12,1 c -2,-1 -2,-4 -2,-5 v -5 h 1 z m -489,1 c 0,8 1,16 3,23 0,3 -2,5 -4,6 -2,2 -6,3 -9,2 l -6,-3 -1,-9 c 1,-5 3,-9 6,-12 l 10,-7 z m -319,24 c -3,-1 -5,-4 -6,-6 v -6 l 5,-2 c 5,-2 9,-3 14,-3 l 2,2 -4,14 -4,3 h -4 z m 490,5 -4,-1 -2,-4 2,-3 5,-2 4,5 1,4 c 0,1 -1,2 -3,1 z"
     id="path8" />
  <path
     d="m 790,228.94992 c -2,-2 -4,-4 -4,-7 -1,-2 1,-4 3,-5 h 11 l 10,4 c 3,2 4,4 4,7 0,3 -2,6 -5,7 -5,1 -10,0 -14,-2 z m -33,-12 q 0,10 -8,16 c -6,4 -15,1 -16,-7 q 0,-2 2,-3 c 6,-3 15,-5 21,-6 v -1 z"
     id="path9" />
  <path
     fill="#bc9678"
     d="m 108,337.94992 -8,1 -15,1 -18,3 h -4 q -2,0 -2,-2 v -4 a 2,2 0 0 1 2,-3 h 15 l 15,-1 20,-1 7,-1 11,-1 q 11,-3 18,-3 l 11,-2 q 15,-5 30,-6 h 8 l 10,-1 23,-4 16,-3 15,-2 17,-1 c 10,-2 19,-1 30,-1 l 17,-3 13,-2 47,-4 36,-1 9,1 h 37 q 11,1 21,-1 l 28,-3 h 23 l 4,1 h 16 l 16,2 18,2 h 23 l 8,1 q 7,0 15,3 l 23,4 11,1 h 11 l 12,1 h 8 l 10,1 h 18 l 7,-1 h 41 l 33,2 12,1 13,1 h 7 q 15,1 33,5 l 23,5 20,2 19,1 h 41 l 15,1 13,1 h 7 q 2,0 1,2 l -2,4 -3,2 -18,-2 -16,1 h -6 l -8,1 h -31 l -8,-1 h -9 l -11,-1 h -16 l -7,-2 -9,-1 h -43 l -9,-1 h -33 l -7,1 -15,1 -6,-1 -19,-3 -7,-2 -25,1 h -9 l -14,1 -5,1 h -22 l -9,-1 -12,-1 -18,-5 q -8,-2 -17,-2 l -24,-2 -24,-3 h -17 l -8,-1 h -13 l -13,-1 -33,1 h -11 l -13,2 -9,1 -12,3 -14,2 -12,1 h -12 l -32,3 -7,1 h -56 l -23,-1 -17,2 -5,1 h -7 c -16,0 -29,4 -44,8 q -6,2 -11,1 h -28 l -12,1 -10,-1 z"
     id="path10" />
</svg>
