<?xml version="1.0" encoding="UTF-8" standalone="no"?>
<svg
   viewBox="0 0 1081.4614 510.04059"
   version="1.1"
   id="svg9"
   sodipodi:docname="record.svg"
   width="1081.4614"
   height="510.04059"
   inkscape:version="1.3.2 (091e20e, 2023-11-25, custom)"
   xmlns:inkscape="http://www.inkscape.org/namespaces/inkscape"
   xmlns:sodipodi="http://sodipodi.sourceforge.net/DTD/sodipodi-0.dtd"
   xmlns="http://www.w3.org/2000/svg"
   xmlns:svg="http://www.w3.org/2000/svg">
  <defs
     id="defs9" />
  <sodipodi:namedview
     id="namedview9"
     pagecolor="#ffffff"
     bordercolor="#000000"
     borderopacity="0.25"
     inkscape:showpageshadow="2"
     inkscape:pageopacity="0.0"
     inkscape:pagecheckerboard="0"
     inkscape:deskcolor="#d1d1d1"
     inkscape:zoom="0.68425926"
     inkscape:cx="540"
     inkscape:cy="279.13396"
     inkscape:window-width="1920"
     inkscape:window-height="974"
     inkscape:window-x="-11"
     inkscape:window-y="-11"
     inkscape:window-maximized="1"
     inkscape:current-layer="svg9" />
  <path
     d="m 62,18.864682 c -4,7 -4,9 -3,14 16,-9 35,-3 54,2 21,5 184,33 204,32 20,3 -99,-21 -80,-18 -58,-13 -118,-23 -175,-30 z m 175,30 62,13 c 53,17 109,12 163,24 81,11 163,18.999998 245,11 60,-9 119,-18 178,-33 41,-16 84,-25 126,-36 7,1 12,4 15,8 l -4,-14 c -35,12 -54,8 -89,19 a 899,899 0 0 1 -436,48 c -47,-9 -94,-13 -142,-17 -39,-9 -79,-16 -118,-23 z m 789,-13 4,21 c 2,-8 1,-15 -4,-21 z m 4,21 c -2,10 -10,20 -20,26 6,0 12,0 17,2 10,46.999998 13,95.999998 9,142.999998 l -24,138 c -13,38 -7,79 -8,116 -57,-3 -101,-47 -153,-67 -57,-16 -118,-19 -176,-27 -58,-12 -116,2 -174,-1 -45,3 -89,-14 -133,-5 -60,16 -124,18 -185,33 -42,1 -83,40 -125,19 -3,-11 5,-17 17,-20 -13,-3 -22,-12 -19,-27 -8,31 -13,61 30,56 52,-16 105,-26 157,-38 49,-2 96,-17 145,-23 42,1 84,8 127,7 53,2 107,-11 160,0 71,15 147,8 212,45 37,26 78,48 124,51 -19,-64 11,-126 14,-190 13,-47 19,-96 14,-145 -8,-30 -5,-61.999998 -9,-92.999998 z M 56,386.86468 l 1,-5 z m 1,-5 4,-10 c 13,-52 0,-106 2,-159 9,-45 4,-88 -2,-132.999998 19,-47 84,2 123,-7 57,7 114,17 171,19 65,-2 128,14.999998 192,26.999998 61,14 122,-5 184,-7 65,-7 131,-14.999998 197,-17.999998 18,3 35,-2 52,-6 -55,5 -111,7 -167,12.999998 -49,8 -99,8 -148,15 -92,23 -182,-21.999998 -274,-24.999998 -79,0 -156,-14 -234,-24 -23,-7 -91,-15 -97,-44 -2,1 -3,11 -5,13 1,42 11,83.999998 9,125.999998 -7,62 1,123 0,185 0,10 -4,22 -7,35 z m 923,-293.999998 7,-1 c 8,2 16,0 23,-4 -9,0 -19,2 -30,5 z M 75,413.86468 c 10,2 22,1 34,-4 -12,0 -24,1 -34,4 z m 34,-4 26,-2 c 54,-12 105,-32 160,-40 82,-20 165,14 248,7 45,-10 92,-8 137,1 52,15 106,10 159,16 59,5 102,58 162,55 -62,-6 -112,-56 -176,-60 -62,5 -123,-10 -184,-19 -41,-9 -81,7 -123,5 -56,3 -110,-16 -166,-14 -83,1 -159,38 -240,50 z M 62,58.864682 l 1,2 z m -7,355.999998 1,1 c -3,2 -3,-1 -1,-1 z"
     id="path1" />
  <path
     fill="#bc9678"
     d="m 984,88.864682 c -66,3 -132,8 -197,14.999998 -45,10 -92,4 -138,15 -55,9 -111,-2 -165,-15 -45,-8.999998 -92,-14.999998 -139,-14.999998 -67,-1 -133,-19 -201,-22 -20,-11 -64,0 -79,-16 -4,-4 -6,-10 -5,-20 22,-15 67,9 98,5 42,12 87,13 129,24 44,7 86,20 131,19 l 123,17 c 60,3 120,6.999998 180,0 55,-11 111,-19 165,-32 38,-13 75,-30 116,-31 32,-26 33,31 20,46 -13,3 -27,2 -38,10 z"
     id="path2" />
  <path
     d="m 1002,447.86468 c -29,-2 -60,-17 -87,-32 -39,-20 -82,-33 -127,-29 -66,1 -129,-23 -194,-22 -73,18 -148,3 -221,-7 -54,2 -107,9 -159,26 -34,12 -69,19 -105,25 -24,1 -74,17 -49,-24 13,-40 4,-84 4,-125 -3,-38 1,-77 5,-115 -5,-28 -7,-59.999998 -5,-85.999998 43,-2 86,17 130,13 46,9 92,15 139,19 45,1 91,2 135,11.999998 45,6 88,23 134,20 45,4 88,-14 133,-11 36,-1 72,-12.999998 109,-11.999998 46,-2 92,-9 139,-9 18,-6 57,-28 46,9 13,56.999998 11,116.999998 -1,173.999998 -10,33 -8,68 -18,101 -5,23 -8,51 -8,73 z"
     id="path3" />
  <path
     fill="#e4c9b5"
     d="m 1002,447.86468 c -29,-2 -60,-17 -87,-32 -39,-20 -82,-33 -127,-29 -66,1 -129,-23 -194,-22 -73,18 -148,3 -221,-7 -54,2 -107,9 -159,26 -34,12 -69,19 -105,25 -24,1 -74,17 -49,-24 13,-40 4,-84 4,-125 -3,-38 1,-77 5,-115 -5,-28 -7,-59.999998 -5,-85.999998 43,-2 86,17 130,13 46,9 92,15 139,19 45,1 91,2 135,11.999998 45,6 88,23 134,20 45,4 88,-14 133,-11 36,-1 72,-12.999998 109,-11.999998 46,-2 92,-9 139,-9 18,-6 57,-28 46,9 13,56.999998 11,116.999998 -1,173.999998 -10,33 -8,68 -18,101 -5,23 -8,51 -8,73 z m -75,-238 c 9,-26 11,-63 -28,-54 -27,-8 -45,31 -8,20 28,-9 22,17 -2,9 -30,2 -16,27 8,19 31,6 -62,5 -30,26 28,-6 70,17 86,-14 -8,-4 -18,-6 -26,-6 z m -667,1 c -13,-27 5,-27 21,-41 -8,-22 -61,-7 -72,7 8,21 45,0 25,31 -15,2 -61,8 -27,25 25,-9 47,18 12,21 -28,15 -11,79 28,64 41,13 58,-62 19,-69 -34,2 4,-32 21,-17 29,3 24,-35 -5,-22 z m 149,-5 c 2,4 66,-21 24,-22 -16,4 -49,-1 -15,-8 45,-14 -17,-21 -33,-14 -32,-13 -36,34 -3,22 35,2 -71,4 -30,24 13,0 26,-4 39,-2 -42,-6 -43,70 -2,60 24,2 -55,16 -11,22 29,-7 15,17 -8,11 -39,20 38,23 52,10 30,-17 5,-18 -11,-15 -37,-4 48,-11 11,-24 -25,1 -20,-8 2,-8 30,-10 24,-67 -15,-56 z m 188,-20 c 17,-28 -34,-34 -16,-2 -19,0 -43,20 -8,22 16,9 79,-5 35,-18 l -5,-1 z m 205,27 c 6,-37 38,-6 54,-25 -12,-21 -63,-39 -63,-2 -9,16 -36,-1 -19,28 14,1 53,17 19,28 -25,17 24,9 12,32 10,37 29,3 19,-18 30,-8 0,-18 0,-29 33,-15 -8,-24 -22,-14 z m -157,28 c 36,0 78,0 83,-44 10,-37 -49,-33 -71,-25 -25,-3 -37,26 -7,27 19,-9 75,-11 52,15 -32,-2 -82,10 -72,52 -14,47 42,51 74,50 32,19 51,-43 27,-35 -20,13 -68,14 -81,-3 z m -478,-45 c 19,-35 -58,-10 -13,3 h 7 z m 297,38 c 4,24 -17,45 -26,56 17,12 33,-19 39,13 41,14 50,-54 42,-82 -13,-15 -32,-8 -37,-31 -14,4 -13,26 -33,28 -8,9 10,15 15,16 z m 135,-6 c 48,-7 -32,-29 -38,-7 6,13 27,7 38,7 z m -439,7 c 12,-34 -68,-8 -19,6 6,0 14,-2 19,-6 z m 731,66 c -29,25 32,23 22,-9 6,-16 -9,-86 -20,-42 -1,17 0,34 -2,51 z m -329,-51 c 12,17 84,-2 38,-12 -10,2 -41,-7 -38,12 z m 365,16 c 27,3 21,-43 2,-12 0,4 -5,8 -2,12 z m -49,0 c 40,-31 -55,-9 0,0 z m -31,2 c -21,-35 -16,35 0,0 z m -278,41 c 33,17 74,-33 31,-47 -31,-11 -65,28 -31,47 z m 216,-22 c 45,8 -22,-52 0,0 z m -617,0 c 40,-43 -88,0 -23,12 8,-3 16,-7 23,-12 z m 774,-5 c -14,-24 -35,-7 -17,12 9,24 59,17 17,-12 z m -82,4 c -5,32 55,-17 11,-8 l -6,4 z m -25,23 c 47,-28 -49,-18 -39,4 9,10 28,-2 39,-4 z"
     id="path4" />
  <path
     d="m 409,205.86468 c 9,0 20,-1 27,5 7,7 6,17 6,25 0,6 -2,12 -6,16 -2,6 -7,10 -13,10 -6,2 -16,0 -20,5 3,5 12,1 17,3 6,-1 15,3 11,11 -4,5 -12,4 -17,5 -6,0 -16,0 -13,8 l 35,-1 c -1,7 -8,13 -15,16 -17,7 -36,8 -54,7 -7,0 -15,-8 -8,-14 5,-3 12,-3 19,-5 6,-2 13,0 18,-3 l -2,-8 -22,2 c -8,0 -10,-11 -1,-12 7,-3 16,-3 23,-6 3,-7 -10,-3 -14,-3 -6,1 -13,-1 -16,-7 -3,-9 -3,-18 -4,-27 -1,-6 -3,-13 3,-16 9,-5 18,-8 28,-10 1,-3 -5,-1 -8,-1 l -31,2 c -4,-2 -14,-6 -9,-12 12,-8 27,-8 40,-10 2,0 12,0 8,-3 l -22,3 c -7,-1 -14,-8 -12,-16 1,-7 9,-9 16,-8 l 30,-2 c 10,0 19,-1 29,1 10,4 -1,13 -7,13 l -23,7 c 0,4 3,6 7,5 l 35,-2 c 10,2 1,13 -5,14 -10,5 -22,5 -33,7 z m 21,20 c -2,-3 -6,-1 -8,-1 l -17,1 c -1,2 -1,7 1,8 l 23,-2 c 2,-2 0,-4 1,-6 z m -36,9 c 3,-1 2,-8 -1,-7 l -24,2 c -3,1 0,5 1,8 3,5 11,-3 16,-2 z m 35,15 c 2,-2 0,-5 0,-8 -7,-2 -16,1 -23,2 -5,1 -3,8 2,6 z m -57,0 c 1,3 1,7 5,6 l 16,-3 c 6,-4 -2,-9 -6,-7 l -13,2 -1,1 z m 430,-37 c 8,-1 14,-5 22,-4 6,-2 14,3 12,10 -2,7 -13,5 -13,12 1,6 9,4 12,8 6,4 1,13 -5,14 -8,1 -5,9 -4,14 -1,8 0,16 -4,23 -5,4 -11,-1 -13,-6 -5,-7 -4,-16 -5,-24 -4,-6 -14,1 -18,-7 -3,-8 7,-11 13,-13 6,-1 13,-11 5,-14 -4,-1 -8,-3 -10,-7 -5,0 -11,2 -16,-2 -6,-3 -8,-10 -8,-16 -2,-5 3,-10 7,-6 8,2 13,-5 18,-10 5,-5 0,-12 3,-17 3,-6 11,-6 17,-4 11,3 23,9 34,14 6,2 11,10 4,15 a 44,44 0 0 1 -34,-2 c -7,0 -6,10 -11,14 z m 126,-3 c 6,-1 13,2 20,3 5,0 6,6 2,9 -5,5 -11,10 -18,11 -9,0 -18,-3 -28,-3 h -35 c -5,0 -12,-4 -8,-10 4,-5 10,-6 16,-8 9,-3 18,-4 28,-5 4,-2 -4,-4 -6,-3 -9,-1 -18,0 -26,-3 -6,-3 -2,-11 3,-12 9,-5 19,-4 28,-4 5,2 8,-5 7,-8 -5,-3 -10,-1 -15,-2 -7,1 -15,4 -23,2 -4,-1 -8,-8 -4,-12 7,-7 17,-8 27,-9 11,0 23,-1 33,5 5,4 6,12 4,18 -2,9 -6,19 -6,30 z m -331,-24 c 8,2 17,3 26,7 3,1 4,6 1,7 -4,2 -7,6 -12,6 -10,2 -20,1 -30,1 -10,-1 -19,-3 -28,-7 -3,-3 0,-8 3,-9 6,-3 13,-4 19,-5 2,0 6,-1 3,-4 l -2,-11 c 1,-5 4,-11 9,-11 6,-1 11,4 12,9 1,4 2,8 1,11 -1,2 -3,4 -2,6 z m -337,25 21,-1 c 8,0 17,-1 25,1 7,6 0,16 -7,19 -5,5 -12,2 -17,2 l -24,-1 c -3,5 -7,12 -5,17 10,1 22,0 29,8 7,6 3,16 4,24 0,10 0,21 -6,29 -6,5 -14,8 -21,9 h -34 c -7,-1 -13,-7 -14,-13 -4,-10 -7,-21 -4,-32 1,-7 0,-17 9,-18 7,-3 14,-6 22,-7 1,-3 -1,-6 -1,-8 -1,-2 -1,-7 -5,-6 l -27,-1 c -5,-2 -11,-7 -11,-13 3,-9 15,-7 22,-8 7,-2 18,1 19,-8 1,-5 4,-11 4,-16 -7,0 -14,2 -20,0 -5,-3 -12,-8 -10,-14 3,-7 12,-7 18,-9 l 39,-7 c 7,-1 17,2 15,11 -2,8 -11,11 -18,13 -4,2 -10,2 -6,8 z m 4,87 1,-6 3,-21 c -2,-2 -5,-1 -8,-1 l -31,-1 c -1,4 3,10 3,15 3,4 0,12 5,13 9,0 18,-1 27,1 z m 584,-5 c 3,2 1,5 -1,7 -5,6 -12,9 -19,11 -7,2 -14,5 -22,5 h -8 c -3,-2 -4,-5 -5,-8 -1,-3 3,-4 5,-5 12,-5 24,-9 37,-12 h 12 z m 12,-7 c 5,-5 10,-9 17,-9 3,-1 6,0 9,1 2,2 3,6 1,8 -2,4 -6,6 -10,8 l -9,4 -6,-2 c -2,-1 -4,-3 -4,-5 -1,-2 1,-3 2,-5 z m -215,-44 c 3,13 4,27 5,41 10,7 23,3 34,5 13,2 28,5 40,-1 2,-9 18,-10 17,0 3,9 1,19 -7,24 -14,8 -31,5 -46,4 -18,-1 -38,-1 -53,-13 -8,-9 -6,-22 -5,-33 l 2,-30 c 4,-10 15,-12 23,-17 16,-7 34,-10 51,-8 1,-7 2,-17 -6,-21 -10,-3 -19,2 -29,3 -12,2 -25,6 -36,-1 -7,-5 -4,-17 5,-17 13,-4 26,-10 41,-11 15,-1 32,1 45,10 7,7 5,19 -1,26 -5,7 -6,16 -10,24 -3,8 -12,10 -19,10 -10,0 -20,0 -29,3 z"
     id="path5" />
  <path
     d="m 464,233.86468 c -4,-2 -10,-2 -14,-6 -5,-4 -2,-11 3,-13 l 15,-6 c 3,-5 3,-12 7,-17 3,-5 10,-1 12,3 3,4 3,9 4,14 6,0 13,-1 18,3 8,4 14,13 13,22 0,19 -3,38 -11,55 -5,9 -13,18 -24,18 -8,0 -14,-6 -17,-13 -2,-3 -2,-12 -6,-6 -6,4 -15,8 -21,4 -4,0 -9,-5 -4,-8 3,4 7,-4 10,-6 6,-4 9,-11 10,-18 3,-8 5,-17 5,-26 z m 36,-1 c -5,-2 -13,-2 -14,5 -3,12 -7,24 -12,35 -2,4 -6,11 0,14 4,4 12,5 15,0 6,-9 8,-20 10,-30 2,-8 2,-16 1,-24 z m -333,-37 c -7,5 -15,4 -22,1 -4,-3 -7,-9 -5,-14 2,-4 7,-5 12,-6 5,0 11,0 16,4 5,4 4,12 -1,15 z m -16,22 c 7,3 17,8 9,17 q -1,2 -5,3 c -5,2 -14,4 -19,2 -3,-1 -7,-3 -9,-6 l -4,-7 v -1 c 5,-6 13,-7 22,-8 z m 794,26 2,4 c 1,3 -1,7 -3,9 -4,4 -8,6 -13,8 -1,1 -3,2 -4,1 l -1,-3 3,-8 c 2,-4 4,-8 7,-10 2,-2 5,-3 8,-2 z m -383,6 c -1,-4 -1,-9 4,-11 l 11,-1 q 15,-1 31,1 c 5,0 10,3 9,8 v 1 c -9,10 -31,8 -44,7 -3,0 -11,-2 -11,-5 z m 55,-27 c -6,3 -12,5 -18,5 -5,1 -39,4 -38,-7 0,-2 2,-4 4,-5 q 5,-4 12,-4 l 19,1 c 8,1 15,3 21,7 a 1.5,1.5 0 0 1 0,3 z m 325,59 15,13 c 2,2 1,6 1,8 -1,4 -5,5 -8,6 h -8 c -6,-3 -10,-7 -14,-12 -4,-4 -8,-9 -9,-15 -1,-4 -2,-9 1,-13 2,-2 4,-1 6,0 z m -64,-16 c -2,1 -3,2 -5,1 l -6,-2 c -3,-1 -4,-3 -5,-6 0,-2 1,-5 3,-6 l 9,-4 12,3 2,6 c -1,2 -2,5 -5,6 z m 13,35 c 2,-10 1,-21 1,-31 l 1,-24 c 1,-4 1,-9 4,-12 3,-2 7,-1 8,3 5,11 8,23 8,35 1,13 2,26 -4,37 -2,5 -6,10 -12,11 -5,1 -10,0 -13,-4 -4,-2 -2,-7 1,-8 3,-2 6,-4 6,-7 z m -59,-40 c 2,-2 4,-3 7,-3 l 6,5 2,6 c 1,2 -1,4 -2,6 l -7,4 -4,-2 -3,-9 z m -47,26 c -3,-4 -6,-8 -5,-13 0,-3 2,-5 4,-7 h 4 c 4,1 8,4 10,9 l 2,9 -3,2 c -3,2 -6,2 -10,1 z m -207,22 c -4,-2 -7,0 -11,0 -4,0 -6,-4 -7,-7 -4,-7 -6,-16 -3,-23 2,-8 9,-12 16,-15 8,-3 16,-4 24,-3 6,1 13,4 18,9 3,3 2,8 3,12 0,6 0,14 -4,19 -4,4 -10,5 -15,6 -6,2 -12,4 -18,2 z m 12,-17 9,-1 v -11 l -7,-1 h -16 c -2,1 0,2 0,4 l 2,13 7,-2 z m -422,-5 c -8,5 -16,10 -24,12 -7,1 -15,-3 -18,-9 -1,-4 0,-8 3,-11 4,-3 9,-4 14,-5 l 22,-7 c 4,-1 8,1 11,3 2,2 3,5 1,7 -2,4 -6,7 -9,10 z"
     id="path6" />
  <path
     fill="#765e4b"
     d="m 1001,446.86468 c 2,15 20,51 -10,33 -48,-7 -86,-40 -128,-61 -50,-20 -105,-18 -158,-28 -41,-4 -82,-13 -123,-6 -61,4 -124,3 -185,-6 -44,2 -85,19 -129,21 -39,3 -76,15 -115,22 -32,5 -66,28 -98,14 -11,-35 50,-16 71,-28 74,-11 143,-45 219,-46 52,-4 103,14 155,13 38,4 75,-7 113,-8 60,4 117,25 177,22 41,-2 82,8 118,28 29,12 58,32 90,32 z"
     id="path7" />
  <g
     fill="#e4c9b5"
     id="g9"
     transform="translate(0,-260.13532)">
    <path
       d="m 372,510 2,-2 15,-2 c 2,0 6,0 6,2 v 2 c 0,3 -3,3 -5,4 l -15,2 -2,-2 z"
       id="path8" />
    <rect
       width="25.5"
       height="7.6999998"
       x="-12.8"
       y="-3.9000001"
       rx="1.1"
       transform="rotate(-4,6576,-5183)"
       id="rect8" />
    <path
       d="m 590,552 -10,4 c -2,0 -2,-2 -2,-3 a 610239,610239 0 0 0 -1,-14 h 5 c 6,-1 11,0 17,1 v 10 l -3,2 z M 394,495 c -7,0 -14,2 -22,5 l -2,-1 -2,-6 q -1,-2 1,-3 l 3,-1 22,-1 a 2,2 0 0 1 1,1 l 1,5 z m 35,15 h -25 l -1,-3 c 0,-1 1,-3 3,-3 l 5,-1 16,-2 2,2 1,6 z m 71,-17 v 17 q -1,13 -6,26 c -1,5 -5,14 -10,14 q -8,1 -13,-5 c -1,-3 2,-9 3,-12 l 7,-17 6,-19 c 2,-7 8,-5 13,-4 z m -236,65 c -10,-2 -19,-1 -29,-1 l -1,-4 c -1,-8 -3,-15 -6,-23 l 2,-1 36,1 a 4511625,4511625 0 0 1 -3,28 z"
       id="path9" />
  </g>
</svg>
