<svg xmlns="http://www.w3.org/2000/svg" viewBox="0 0 1080 1080"><path fill-opacity=".7" d="M34 578c18-29-16-99 26-103l159 9c84 2 168 2 252-4 103-14 207-24 310-34 44-9 87-25 130-37 31-20 100-56 106 9 7 66 23 131 21 198-6 46 12 99-3 141-39 24-85-7-128 8-59 5-119-3-178 2-54 3-108 0-161-3-79 1-157-3-235-6-54-8-108-1-162-3-42-3-84-11-125-17-31-34-9-86-17-128l5-32Zm910-177c-75 27-152 54-232 56-92 7-183 22-274 30-80 2-161 4-241 1-50-4-101-11-152-6 44 20 94 3 140 17 75 4 150 3 224 8 90 0 178-19 267-26 73-13 147-19 219-38-23 18-65 16-95 24-115 17-229 31-344 42-72 3-144-3-216-3-51 0-101-10-152-13-63-7-38 68-52 106 6 42-27 113 26 132 53 3 106 3 158 2 72 4 144 6 216 11-82 2-165-7-248-7-40 0-80 4-119-3-30-1 31 7 43 10 78 13 158-2 236 10l210 6c50-1 99 7 149 3 85-7 170 4 255-7 22 0 72 21 69-16-68-23-138 12-207 10-53 1-106 1-158-5 94 1 190 9 282-17 32-5 103 24 87-33 0-77-1-154-18-230 4-35-14-92-52-49-11 9-75 35-35 11 19-9 76-24 57-47-17-1-28 15-43 21Z"/><path fill="#bb9577" d="M992 378c23 24-30 27-42 41-26 13-53 26-82 30-39 10-78 16-118 19-52 11-106 18-159 22-62 8-123 18-185 16-44-2-87-5-130-3-35 1-69-5-104-5-41-10-86-5-127-9-7-24 39 3 51-8 48 1 95 9 143 9 66 1 133-1 199-1 39-3 78-9 117-15 80-8 160-17 239-23 40-18 85-23 124-41 27-5 47-25 74-32z"/><path fill="#e4c9b5" d="M1032 555c5 52 1 104 5 155-15 44-73 0-105 21-55 11-111 16-168 13-66-2-133-2-199 1-130-3-260-13-391-14-42 1-85 3-126-8-23-41-6-90-9-135 11-31-9-103 44-95 70 1 139 15 209 12 88 3 177 9 264-8 113-13 227-25 338-50 42-4 76-54 116-42 11 35 9 73 18 109l4 41z"/><path d="m630 592 16-4c5-2 11-2 16-5 3-5-7-4-10-4-5-1-16-1-14-8 7-4 15-6 22-9 5-2 1-8-3-5-6-1-12 3-17 0-4-3-10-9-5-14 8-5 19-2 27-7 5-3 4-10 9-13 5 1 6 7 9 11 10 0 21 0 30 4 5 2 7 12 0 13-8 2-16 1-24 1-4-1-3 2-3 5-1 4 2 4 5 4 6 0 12-1 18 1s7 12 1 14c-6 1-12-2-18-1-4-1-8 0-7 5-1 5 6 2 8 3l42 6c6 1 8 7 3 11-6 5-14 6-21 5l-40-4c-13 1-25 5-38 6-6 0-14-1-18-7-1-4 8-7 1-9-5-4-6-10-6-16 0-5 5-9 8-4 5 5 10 10 13 16 0 3-2 3-4 5zm-494-16c-5 0-10 2-14-2-3-1-5-4-7-7-1-5 4-8 9-9l22-5 3-11c1-3 5-7 9-6 6 1 9 7 9 12 0 4 3 6 6 5 8 0 17 0 24 3 3 3 1 7-1 9-5 7-13 11-21 10 0 5 3 9 2 13s-3 8-8 8c-6-1-9-7-9-13 0-3 4-6 1-7l-13-1c-2 0-9-1-5 3 3 2 5 6 5 10-1 5-4 10-9 9-5 0-9-5-8-10l5-11zm694 16c-14-1-28 1-41 3-7 1-17-3-16-11 3-6 11-6 16-9l19-4c1-8-11-3-15-3-8 1-15-9-11-16 6-6 15-8 23-9 6-3 9-15 17-11 5 4 10 11 17 9 8-1 19 5 16 14-2 8-12 8-18 8-5-1-11 6-3 6 6 1 13 2 19 5 8 1 12 11 4 14-7 4-15 3-22 4 7 2 10 12 6 18 4 4 14 6 9 14-4 7-12 10-20 10-9 3 3 11 8 9 8 0 19 2 21 12 2 9-9 12-17 11-6 0-16-1-13 7 0 9-1 18-8 24-8 3-11-9-11-15-1-6 0-18-10-13-7 2-20 0-20-10 3-7 12-9 19-11 7 0 14-8 12-14-7-1-15 2-22 1-10-1-9-14 0-14 7-4-2-12 3-18 4-9 16-1 18 6 0 9 9 3 14 3 4-4-2-12 4-17l2-3zm-449-49 45-1c4 0 8 0 11 3 2 2 0 5-1 8-4 6-10 10-16 10-13 2-25 2-37 2-5 0-10 0-14-2-5-3-8-9-7-14 0-7 3-13 9-16 3-2 7-1 8 2l2 8zm207 76c-8 0-17 3-24-3-8-8-7-21-4-31 2-5 5-13 12-11 4 4 5 10 6 15 0 5 2 11 7 7 6 0 5-7 5-11 0-14-1-29 6-41 4-7 11-1 12 4 3 10 2 21 2 32l-1 86c-1 9-3 17-8 24-5 6-8-4-8-8-4-18-4-36-4-55 0-2 1-7-1-8zm334-50c-3-2-7-2-11-2l-27 2c-5 0-10-2-15-4-4-2-6-8-3-11 4-5 11-7 17-8 8-2 17-4 26-4l20 3c8 1 14 7 16 15 4 8 3 18-2 26-4 7-10 14-19 16-6 1-12-2-17-5-2-2-3-7 1-8 6-2 12-6 14-12 1-3 2-5 0-8zm-419 24c-8-1-16 0-24 1l-11 1-11 13c-6 4-14 2-18-3-2-3-2-10 3-10 3-2 3-6 4-9l11-27c1-4 5-8 9-7 4 2 4 7 5 11l1 16c4 1 8-1 12-1 10-1 20-3 31-3 5 1 9 5 10 10 2 8-1 15-6 20s-10 10-16 13c-5 1-8-4-6-8 1-6 5-11 7-17zm-209-39c2 2 1 5 1 8-1 3-4 6-7 8-5 2-10 5-15 5-9 0-18 1-27-1-5-1-11-4-13-9-1-2 0-4 2-5 5-3 10-4 15-5l34-4c4 0 7 1 10 3zm736 4Z"/><path d="M384 605c5-2 15 0 16-6 0-6 8-11 10-3 2 7 10 4 16 5 6-1 16 7 7 12-6 4-13 2-19 4-6 6 5 7 9 6 7-1 14 9 6 13-4 2-17 1-13 9 5 4 16 0 17 8 0 8-9 9-15 10-7 1 0 7 4 6 6 3 14 2 18 4 0 7-7 12-14 12-11 1-22 0-33-1-8 1-13-8-6-12 3-5 13-1 14-8-4-5-14-1-18-7-2-7 8-8 13-9 6 0 6-13-1-10-5 0-18-2-13-9 4-5 11-3 17-6 4-1 4-8-2-7s-11 3-17 0c-6-4-3 6-4 10l-1 48c0 7 1 14-3 19-4 7-11 2-11-4v-25l-1-32c-6 2-13 7-19 3-5-4-2-13 5-12 9-3 14-12 20-19 2-4 7-9 7-13-7 1-16 3-22-2-3-6 6-10 10-11 9-4 19-3 27-9 7-1 12 4 19 2 10 0 20-1 29 2 9 1 5 10 0 13-6 4-13 2-19 2l-25 2c-4 3-7 9-8 15zm502 67c6 1 13-3 16-8l-9-15-5-12c3-6 11-1 15 1 4 1 9 7 13 6 1-3 7-11 1-11-8 1-17 3-24-2-4-4 0-11 4-14 7-6 17-8 26-7 8 0 17 5 19 14 2 10-2 19-6 28-2 4-6 8 0 10 6 5 13 7 18 12 4 5 1 11-3 14s-10 4-15 1c-7-3-13-7-19-12-7 3-14 7-21 6-5 0-8-5-12-7-1 5-3 11-8 13-6 3-9-2-11-6-4-5 2-8 2-13l3-77c1-7 2-14 8-18 4 3 5 8 5 13 1 19 0 38 2 57l1 27zm-625-60c-6 1-13-3-18-2 0 12-2 23-6 34-3 6-11 12-17 7-6-2-3-8-1-12l5-47c1-5 3-11 7-15 5 0 8 6 9 10 2 3 0 12 5 11 8-6 18-7 28-6 10-1 20 2 30 2-1 5-5 12-10 15-6 3-12 2-17 4l1 12c1 17 2 33 0 50-2 7-5 15-13 17-4-4-4-11-5-17-1-19 1-37 2-56 0-2 2-5 0-7zm-129 13c-5 0-11 2-15-2-4-3-7-7-5-12 3-4 8-4 12-4l32-4h37c5 0 10 2 13 6 0 3-2 6-4 8-4 4-10 5-15 7h-25l-30 1zm347 34c-3 2-4 7-6 10-4 6-11 12-18 11-5-1-8-5-11-9-3-5 7-1 8-4 5-5 6-11 8-17l8-39c2-3 4-9 8-8 6 2 9 7 9 12l1 20 8 9c6 7 12 15 19 21l12 9c2 3-1 7-3 10-4 4-11 6-17 3-9-4-15-13-21-21l-5-7zm218 17h-39l-2 9c-1 6-3 13-9 15-4 2-7-4-8-8-4-13 0-27-1-41v-17c1-5 5-9 10-10 4-3 6-8 11-10l23-4c8-1 17 0 24 4 8 6 11 17 11 26 0 14 1 28-1 42-1 7-3 14-8 19-7 6-18 5-23-2-2-4 3-7 6-9 4-3 5-9 6-14zm0-45c0-4-5-6-8-6-9 0-18-1-26 2-6 1-10 6-7 11 5 0 9-2 14-3 8-2 16-2 24-1 1 0 4 0 3-3zm1 20c-2-4-7 0-10 0-10 1-21 1-32-1v14c3 3 8-1 12-1 10-2 20-2 30-2v-11z"/><path d="M149 653q-8-1-21 2-9 1-12-8-1-7 5-9 10-4 17-4l9-1c4 0 5-3 7-6 3-4 9 3 12 5h1l24 1c3 1 9 1 8 5 0 15-21 16-31 16l-1 1c-1 11-2 22-6 32-3 7-10 13-17 9l-7-5q-3-3 0-7l5-6c6-7 7-14 7-24v-1z"/><path fill="#e4c9b5" d="M697 631v2l-4 1q-11-2-21 1l-14 3a2 2 0 0 1-3-1l1-6a1 1 85 0 1 0-1q7-4 12-4 11-2 23 0l4 1c2 1 1 3 2 4Zm1 20v10c-15 0-27 1-40 4a1 1 0 0 1-2-1v-13l1-1c11 2 25 2 37-1h3a1 1 0 0 1 1 2Z"/><path d="M190 694c-8 0-12-7-15-13v-3q5-8 15-6c5 1 9 5 9 10 1 6-4 11-9 12zm-62-35c3 2 1 13 0 16-2 6-9 10-14 6-6-4-6-11-1-16 2-2 11-8 15-6z"/><path fill="#765e4b" d="M1001 733c29-6 52 21 15 30-32-4-64-12-96-3-67 6-135-5-203 3-44 0-88 2-131-5-71 5-141-4-211-2-29-2-59-3-88-8-53 0-106 6-158-2-14-1-58-7-52-12 35 9 71 3 106 5 62-3 123 6 184 4 42 7 85 1 127 7 55 4 110 3 165-2 63 3 127 5 191 1 36 1 70-14 106-14 15-2 30-2 45-2z"/></svg>