<svg xmlns="http://www.w3.org/2000/svg" viewBox="0 0 1080 1080"><path fill="#ffbd59" d="M839 428c50 1 102-3 152 1 0 6-17 12-20 18 18 1-11 11 6 16 2 13 8 23-10 32-4 20 6 38 24 47-3 15 6 35-19 40-33 14 41 26 8 43-28 15-61 8-92 11-141 4-283 11-425 10-68-3-137 1-204-10-42-4-83-3-125-1-11-5 28-12 3-18-1-11 33-18 6-19-11-8-50-34-13-35 19 2 35-15 11-22 4-11 23-15-1-18-18-10 31-25-4-29-7-21 51-3 19-25 1-8-23-17-1-22 20-6 16-8 4-10 15-6-16-8 9-13 35-6 71-1 107-3 76 1 152-1 227 8l338-1z"/><path d="M606 452v25c0 2-1 4-3 5l-5-2c-2-1-3-3-4-6v-9l-1-19 1-2 4-1 3 2 3 1 2 3v3zm-365 56c-8-1-16 3-24 5-3 2-5-2-7-4-4-3 1-4 3-5l22-7c2-7 1-14-2-20 0-5-7-12-4-15 7 0 13 3 14 9l7 21c1 4 6 2 10 2h10c6-1 16 3 16-6 3-5-7-14 1-16 5-1 9 2 9 7l3 12c8 2 15-3 23-2 4 1 7-1 11-1l19 1c2 2 6 3 5 7-3 1-6 4-8 2-4-2-9 0-13-1-7-3-15 0-22 2-5 2-11 2-16 5l-7 18c-9 1-8-10-6-16 2-5-5-4-8-4h-18c-4 9-8 20-10 30 12-1 24 2 32 9 3 7 3 15 0 21-3 11-9 21-14 31l-8 2c-10-3 1-11 3-17 4-9 8-19 9-30 0-8-10-9-16-8-6-2-10 1-12 7l-9 18-9 3-5-7c9-16 17-34 21-53zm536 71c6 4 13-2 19 0 4 5-5 7-9 9-5 2-11 0-16 2-6 1-11-1-16-1s-9 0-13-3l-7-3c-4-5 5-6 8-4 6 2 12 2 18 1 3-6-2-13-9-12-5-2-6-10-9-15l-8-16c6-3 10 4 13 8l15 17 3-18c1-5-1-11-7-12-8-2-16 2-23-3-5-2-14-3-13-11l10-13 28-36c-1-4 0-8 5-6 7-1 13 3 16 10 4 6 10 9 15 14l12 10c2 5-7 6-9 3l-21-17c-3-4-10-5-13 0-5 5-9 11-11 18 4 1 9-1 14 1h16c5-2 11 2 12 5-4 6-12 2-17 5-5 4-4 13 4 11 5 0 14-4 16 3 0 3-1 7 2 10 0 7-5 13-8 19l-14 17c-1 2-3 4-3 7zm-29-72c-3 5-8 11-8 15 6 3 13 4 19 4s7-7 8-11c-1-4-6-6-10-6l-9-2zm36 41c3-4 8-12 4-15-7-4-12 3-12 10 1 6-1 12-1 19l9-14z"/><path d="M852 569c-3 5-1 11-2 17l-1 8c1 4-1 8-5 8-8-1-8-11-6-17 1-6-9-2-13-1-3-1-8 1-11-2-2-2-5-3-4-6 4-2 10-3 15-2 4 1 6-2 9-2l7-3 1-10-7-2c-5 2-11 0-16 1-4 1-6-2-8-4-4-3 1-5 4-4l10-1 8-1h9c4-7 6-15 6-23l-6-2c-5 2-10-1-14 2h-16l-6-6c1-4 5-2 8-3h9l17-1c3 1 7 0 9-2s1-5 1-7c1-3-2-3-4-3-3 0-6-1-8 1l-16-1-5-8c3-2 10 0 15-1l22 1c5-3 4-10 4-15-3-8-12-3-18-5-7 0-13 3-20 4-3 2-5 0-7-2-2-1-5-5-1-6 12-6 24-5 37-5l21 6c2 5 1 11 0 17-1 4 3 9 0 13l-3 7c1 2 4 2 6 3 3 2 6-3 9-1l8 4c1 2 0 3-2 4l-7 2h-12c-6 0-9 4-9 10-3 6-3 13-3 20 5 1 7-2 10-4 7-6 16-10 25-12 2 1 5 3 5 5-11 6-21 13-30 21v7c8 6 17 10 27 13 3 3 0 6-4 6-6 2-11-3-16-5l-22-14zm-466-35v-5l35-57 4-1h1l7 3a2 2 0 0 1 1 3l-40 63h-1l-7-6zm294-39c-4-1-8-1-12 1l-12 3-6-6c-1-5 7-5 10-7 8-2 17-4 25-3 3 1 7 2 7 5l2 8c-3 4-2 9-2 13-2 4 2 8 3 11-2 2-3 5-6 5l-22 4c-2 4-1 9-2 13-2 9-4 19-3 29 0 3-1 6 2 8 2 2 3 4 6 5 4 0 8-1 11-3 8-4 15-7 23-9 4-1 7 4 6 8-10 7-22 12-34 14-5 0-12 0-16-3-5-4-9-10-10-17v-14l3-30-3-7 19-5c4-2 9-2 11-5v-18zm-184 4c-3 1-6 3-10 2h-13c-2 0-5 2-7 1l-6-7v-3l6-1 14-1 8-1 13-1 17-2c3 0 5 2 8 3s2 4 0 5l-3 3c-7 1-13 3-20 3l-7-1zm129 4h-21c-4 0-9 2-14 1l-17 2c-2 0-5 2-7 1l-5-4c-3-4 4-6 7-7 6-1 12 1 18-1l14-1h28l4 3c2 1 2 3 0 3-2 1-4 4-7 3zm-198 48c-4-1-6 3-8 5l-6 7c-3-1-8-2-8-5-2-4 4-5 5-8l26-38c3-3 6-8 11-6 4-1 7 2 7 6s-4 6-6 8c-2 3-6 5-7 9v19c2 3 1 7 1 10v18c2 4 1 8 1 13 0 3-5 4-8 3s-7-3-7-7c2-4 1-9 1-14 0-6 1-12-1-18l-1-2zm-119-5c-6 7-9 15-14 23-1 2-2 6-6 6-2 1-3-2-4-3-1-4 4-9 5-13 8-16 14-31 19-47 1-2 4-1 6-2s2 2 3 3c1 2 3 4 2 6l-3 11 2 10c3-1 6-5 8-7 8-6 17-11 27-12 4 0 6 6 2 7l-25 13-1 5c3 4 8 6 12 9l34 17 2 5-7 3c-16-7-32-16-48-25-3 2-3 8-3 12 0 10-2 21-6 30-1 4-4 3-6 4-3 1-6-2-6-5 0-6 2-11 3-16 2-7 5-14 4-22v-12zm314-30c1 2 3 2 3 4-1 2-3 2-5 2l-34 7c-2 0-3-2-5-3l-3-3c0-2 3-1 4-2 12-3 23-5 35-6l5 1zm-122 19c-4-2-9 1-14 1l-23 3c-3 0-4-3-6-5 0-4 6-3 8-4l62-11h11c1 2 3 3 3 5 1 3-2 4-5 5-3 2-8 2-12 2-4-1-9 2-9 7-1 5 1 10 2 15l-1 13-1 18c-2 4 0 9-1 13-2 3-4 11-8 7-4-1-7-4-8-8-3-3 3-7 3-11 3-8 2-18 2-27l1-11c0-4-2-7-3-11h-1zm90 13-5-4-1-3 1-2 19-1 19-3 1 2 1 3c-1 2-3 2-5 3a60 60 0 0 1-30 5zm3 42v11a1 1 78 0 1 0 1l-4 2a1 1 54 0 1-1 0l-6-6-1-7 1-3v-9l1-7v-1h-1v-9c5-2 7-4 11-4h12q7 0 11 2 6 2 11 6l3 5 3 10v1l-3 7-1 1-16 3h-9l-5-1-5-3-1 1zm0-9a1 1 0 0 0 1 1l9 2h5l10-2 1-1 1-6h-1l-2-6h-1l-8-3h-4l-9 2a2 2 83 0 0-2 2v11z"/></svg>